<svg width="133" height="133" viewBox="0 0 133 133" fill="none" xmlns="http://www.w3.org/2000/svg">
<g clip-path="url(#clip0_175_16023)">
<path fill-rule="evenodd" clip-rule="evenodd" d="M62.2523 95.6401C77.2615 103.773 94.4278 109.747 111.448 108.577C117.64 108.151 123.373 106.366 129.258 104.591C129.671 104.467 129.906 104.029 129.782 103.614C129.656 103.199 129.219 102.964 128.804 103.09C123.032 104.83 117.413 106.595 111.34 107.012C94.562 108.166 77.6496 102.225 62.8675 94.1909L62.9728 93.9536C64.1226 91.3795 63.4104 87.6225 61.5319 83.6798C58.8401 78.0279 53.8282 71.9548 49.3178 68.6004C47.2907 67.0935 45.3482 66.1357 43.7464 65.9355C42.4975 65.7786 41.4261 66.0593 40.5984 66.8066C38.8355 68.4002 38.8974 71.1188 40.2949 74.2709C43.2158 80.8641 51.7948 89.5464 56.4477 92.3311C57.9009 93.2001 59.3789 94.0547 60.8796 94.8866C60.6897 95.3449 60.5019 95.7928 60.2996 96.2201C59.7195 97.436 59.0073 98.499 57.6346 99.2277C55.494 100.361 52.9281 100.557 50.3024 100.264C46.2049 99.8036 41.9628 98.1378 38.8396 96.7073C21.4462 88.7393 12.8321 74.9191 8.21234 61.0453C3.54919 47.0331 2.93818 32.9549 1.55719 24.6505C1.48701 24.2232 1.08242 23.9362 0.655117 24.0064C0.227817 24.0766 -0.0611775 24.4812 0.0110713 24.9085C1.40031 33.2666 2.02989 47.4357 6.72606 61.5407C11.4656 75.784 20.3315 89.9531 38.1852 98.1337C41.4385 99.6241 45.8601 101.344 50.1269 101.822C53.0809 102.153 55.9605 101.889 58.3695 100.613C60.5308 99.4672 61.3895 97.6795 62.2523 95.6401ZM61.4886 93.4313L61.5422 93.3136C62.5475 91.0636 61.759 87.8021 60.1158 84.3548C57.5293 78.9238 52.7176 73.084 48.3806 69.8596C46.8943 68.7532 45.4721 67.9585 44.2211 67.624C43.189 67.3495 42.2931 67.3887 41.6511 67.9708C41.0422 68.5179 40.8006 69.2713 40.811 70.1486C40.8213 71.1787 41.164 72.3615 41.7275 73.6351C44.5349 79.9703 52.7816 88.3099 57.2527 90.9852C58.642 91.815 60.0539 92.6324 61.4886 93.4313Z" fill="white"/>
<path fill-rule="evenodd" clip-rule="evenodd" d="M131.248 102.164C131.18 102.5 130.951 102.923 130.699 103.375C130.101 104.453 129.248 105.601 128.868 106.158C128.625 106.517 128.72 107.004 129.077 107.248C129.436 107.492 129.923 107.399 130.167 107.04C130.631 106.356 131.764 104.825 132.373 103.555C132.699 102.874 132.869 102.244 132.832 101.792C132.77 101.022 132.161 100.541 130.953 100.57C129.525 100.605 126.872 101.322 124.651 100.461C124.248 100.304 123.792 100.506 123.637 100.909C123.481 101.313 123.681 101.767 124.085 101.924C126.203 102.744 128.672 102.35 130.334 102.184C130.65 102.153 131.025 102.158 131.248 102.164Z" fill="white"/>
</g>
<defs>
<clipPath id="clip0_175_16023">
<rect width="133" height="133" fill="white"/>
</clipPath>
</defs>
</svg>
