<svg width="231" height="211" viewBox="0 0 231 211" fill="none" xmlns="http://www.w3.org/2000/svg">
<g filter="url(#filter0_d_11_15925)">
<rect x="5" y="4" width="221" height="201" rx="12" fill="white"/>
</g>
<path d="M30.8584 22.9258H29.3935V22.082H30.8584C31.098 22.082 31.292 22.043 31.4404 21.9648C31.5914 21.8841 31.7021 21.7747 31.7724 21.6367C31.8427 21.4961 31.8779 21.3359 31.8779 21.1562C31.8779 20.9818 31.8427 20.819 31.7724 20.668C31.7021 20.5169 31.5914 20.3945 31.4404 20.3008C31.292 20.207 31.098 20.1602 30.8584 20.1602H29.7451V25H28.6709V19.3125H30.8584C31.3011 19.3125 31.6787 19.3919 31.9912 19.5508C32.3063 19.707 32.5459 19.9245 32.7099 20.2031C32.8766 20.4792 32.9599 20.7943 32.9599 21.1484C32.9599 21.5156 32.8766 21.832 32.7099 22.0977C32.5459 22.3633 32.3063 22.5677 31.9912 22.7109C31.6787 22.8542 31.3011 22.9258 30.8584 22.9258ZM33.8037 19.3125H35.8701C36.3024 19.3125 36.6735 19.3776 36.9834 19.5078C37.2933 19.638 37.5315 19.8307 37.6982 20.0859C37.8649 20.3411 37.9482 20.6549 37.9482 21.0273C37.9482 21.3216 37.8961 21.5768 37.792 21.793C37.6878 22.0091 37.5407 22.1901 37.3506 22.3359C37.1631 22.4818 36.9417 22.5964 36.6865 22.6797L36.3506 22.8516H34.5263L34.5185 22.0039H35.8818C36.1032 22.0039 36.2868 21.9648 36.4326 21.8867C36.5784 21.8086 36.6878 21.7005 36.7607 21.5625C36.8362 21.4245 36.874 21.2669 36.874 21.0898C36.874 20.8997 36.8375 20.7357 36.7646 20.5977C36.6917 20.457 36.581 20.349 36.4326 20.2734C36.2841 20.1979 36.0966 20.1602 35.8701 20.1602H34.8779V25H33.8037V19.3125ZM37.0146 25L35.6982 22.4531L36.8349 22.4492L38.167 24.9453V25H37.0146ZM40.0341 19.3125V25H38.9599V19.3125H40.0341ZM41.6631 19.3125H42.5927L44.1474 23.5938L45.6982 19.3125H46.6318L44.5185 25H43.7724L41.6631 19.3125ZM41.1943 19.3125H42.1045L42.2685 23.2461V25H41.1943V19.3125ZM46.1865 19.3125H47.1006V25H46.0263V23.2461L46.1865 19.3125ZM50.5263 20.1758L48.9052 25H47.7685L49.8935 19.3125H50.6201L50.5263 20.1758ZM51.8818 25L50.2529 20.1758L50.1552 19.3125H50.8857L53.0224 25H51.8818ZM51.8076 22.8867V23.7344H48.7568V22.8867H51.8076ZM53.6084 19.3125H55.6748C56.1071 19.3125 56.4782 19.3776 56.7881 19.5078C57.098 19.638 57.3362 19.8307 57.5029 20.0859C57.6696 20.3411 57.7529 20.6549 57.7529 21.0273C57.7529 21.3216 57.7008 21.5768 57.5966 21.793C57.4925 22.0091 57.3453 22.1901 57.1552 22.3359C56.9677 22.4818 56.7464 22.5964 56.4912 22.6797L56.1552 22.8516H54.331L54.3232 22.0039H55.6865C55.9078 22.0039 56.0914 21.9648 56.2373 21.8867C56.3831 21.8086 56.4925 21.7005 56.5654 21.5625C56.6409 21.4245 56.6787 21.2669 56.6787 21.0898C56.6787 20.8997 56.6422 20.7357 56.5693 20.5977C56.4964 20.457 56.3857 20.349 56.2373 20.2734C56.0888 20.1979 55.9013 20.1602 55.6748 20.1602H54.6826V25H53.6084V19.3125ZM56.8193 25L55.5029 22.4531L56.6396 22.4492L57.9716 24.9453V25H56.8193ZM59.1709 19.3125L60.4209 21.9648L61.6787 19.3125H62.8584L60.9677 22.918V25H59.8779V22.918L57.9834 19.3125H59.1709ZM67.667 19.3125V25H66.5966V19.3125H67.667ZM69.4326 19.3125V20.1602H64.8506V19.3125H69.4326ZM73.917 24.1562V25H70.8935V24.1562H73.917ZM71.2216 19.3125V25H70.1474V19.3125H71.2216ZM73.5224 21.6602V22.4844H70.8935V21.6602H73.5224ZM73.9052 19.3125V20.1602H70.8935V19.3125H73.9052ZM75.5185 19.3125L76.6552 21.3398L77.7959 19.3125H79.0302L77.3427 22.1328L79.0732 25H77.8271L76.6552 22.9336L75.4873 25H74.2373L75.9677 22.1328L74.2802 19.3125H75.5185ZM82.1748 19.3125V25H81.1045V19.3125H82.1748ZM83.9404 19.3125V20.1602H79.3584V19.3125H83.9404Z" fill="#828282"/>
<path d="M31.3579 36.7422C31.3579 36.626 31.3397 36.5234 31.3032 36.4346C31.269 36.3434 31.2075 36.2614 31.1186 36.1885C31.032 36.1156 30.9113 36.0461 30.7563 35.98C30.6036 35.9139 30.41 35.8467 30.1753 35.7783C29.9292 35.7054 29.707 35.6245 29.5088 35.5356C29.3105 35.4445 29.1408 35.3408 28.9995 35.2246C28.8582 35.1084 28.75 34.9751 28.6748 34.8247C28.5996 34.6743 28.562 34.5023 28.562 34.3086C28.562 34.1149 28.6019 33.936 28.6816 33.772C28.7614 33.6079 28.8753 33.4655 29.0234 33.3447C29.1738 33.2217 29.3527 33.126 29.56 33.0576C29.7674 32.9893 29.9987 32.9551 30.2539 32.9551C30.6276 32.9551 30.9443 33.0269 31.2041 33.1704C31.4661 33.3117 31.6655 33.4974 31.8022 33.7275C31.9389 33.9554 32.0073 34.1992 32.0073 34.459H31.351C31.351 34.2721 31.3112 34.1069 31.2314 33.9634C31.1517 33.8175 31.0309 33.7036 30.8691 33.6216C30.7073 33.5373 30.5022 33.4951 30.2539 33.4951C30.0192 33.4951 29.8255 33.5304 29.6728 33.6011C29.5202 33.6717 29.4062 33.7674 29.331 33.8882C29.2581 34.009 29.2216 34.1468 29.2216 34.3018C29.2216 34.4066 29.2433 34.5023 29.2866 34.5889C29.3322 34.6732 29.4017 34.7518 29.4951 34.8247C29.5908 34.8976 29.7116 34.9648 29.8574 35.0264C30.0055 35.0879 30.1821 35.1471 30.3872 35.2041C30.6697 35.2839 30.9135 35.3727 31.1186 35.4707C31.3237 35.5687 31.4923 35.6792 31.6245 35.8022C31.7589 35.923 31.858 36.0609 31.9218 36.2158C31.9879 36.3685 32.021 36.5417 32.021 36.7354C32.021 36.9382 31.9799 37.1216 31.8979 37.2856C31.8159 37.4497 31.6985 37.5898 31.5459 37.7061C31.3932 37.8223 31.2098 37.9123 30.9956 37.9761C30.7837 38.0376 30.5467 38.0684 30.2846 38.0684C30.0545 38.0684 29.8278 38.0365 29.6045 37.9727C29.3834 37.9089 29.1818 37.8132 28.9995 37.6855C28.8195 37.5579 28.6748 37.4007 28.5654 37.2139C28.4583 37.0247 28.4048 36.806 28.4048 36.5576H29.061C29.061 36.7285 29.094 36.8755 29.1601 36.9985C29.2262 37.1193 29.3162 37.2196 29.4301 37.2993C29.5464 37.3791 29.6774 37.4383 29.8232 37.4771C29.9713 37.5135 30.1251 37.5317 30.2846 37.5317C30.5148 37.5317 30.7096 37.4998 30.8691 37.436C31.0286 37.3722 31.1494 37.2811 31.2314 37.1626C31.3157 37.0441 31.3579 36.904 31.3579 36.7422ZM34.3008 38.0684C34.0433 38.0684 33.8097 38.0251 33.6001 37.9385C33.3927 37.8496 33.2138 37.7254 33.0634 37.5659C32.9153 37.4064 32.8014 37.2173 32.7216 36.9985C32.6419 36.7798 32.602 36.5405 32.602 36.2808V36.1372C32.602 35.8364 32.6465 35.5687 32.7353 35.334C32.8242 35.097 32.945 34.8965 33.0976 34.7324C33.2503 34.5684 33.4235 34.4442 33.6172 34.3599C33.8108 34.2756 34.0114 34.2334 34.2187 34.2334C34.483 34.2334 34.7109 34.279 34.9023 34.3701C35.096 34.4613 35.2544 34.5889 35.3774 34.7529C35.5005 34.9147 35.5916 35.1061 35.6508 35.3271C35.7101 35.5459 35.7397 35.7852 35.7397 36.0449V36.3286H32.978V35.8125H35.1074V35.7646C35.0983 35.6006 35.0641 35.4411 35.0049 35.2861C34.9479 35.1312 34.8567 35.0036 34.7314 34.9033C34.6061 34.8031 34.4352 34.7529 34.2187 34.7529C34.0752 34.7529 33.943 34.7837 33.8222 34.8452C33.7015 34.9045 33.5978 34.9933 33.5112 35.1118C33.4246 35.2303 33.3574 35.375 33.3095 35.5459C33.2617 35.7168 33.2378 35.9139 33.2378 36.1372V36.2808C33.2378 36.4562 33.2617 36.6214 33.3095 36.7764C33.3597 36.929 33.4314 37.0635 33.5249 37.1797C33.6206 37.2959 33.7356 37.387 33.8701 37.4531C34.0068 37.5192 34.1618 37.5522 34.3349 37.5522C34.5582 37.5522 34.7474 37.5067 34.9023 37.4155C35.0573 37.3244 35.1928 37.2025 35.3091 37.0498L35.6919 37.354C35.6121 37.4748 35.5107 37.5898 35.3877 37.6992C35.2646 37.8086 35.1131 37.8975 34.9331 37.9658C34.7553 38.0342 34.5446 38.0684 34.3008 38.0684ZM37.958 37.5488C38.1084 37.5488 38.2474 37.5181 38.375 37.4565C38.5026 37.395 38.6074 37.3107 38.6894 37.2036C38.7715 37.0942 38.8182 36.9701 38.8296 36.8311H39.4311C39.4197 37.0498 39.3457 37.2537 39.209 37.4429C39.0745 37.6297 38.8979 37.7812 38.6792 37.8975C38.4604 38.0114 38.22 38.0684 37.958 38.0684C37.68 38.0684 37.4373 38.0194 37.2299 37.9214C37.0249 37.8234 36.854 37.689 36.7173 37.5181C36.5828 37.3472 36.4814 37.1512 36.4131 36.9302C36.347 36.7069 36.3139 36.471 36.3139 36.2227V36.0791C36.3139 35.8307 36.347 35.596 36.4131 35.375C36.4814 35.1517 36.5828 34.9546 36.7173 34.7837C36.854 34.6128 37.0249 34.4784 37.2299 34.3804C37.4373 34.2824 37.68 34.2334 37.958 34.2334C38.2474 34.2334 38.5003 34.2926 38.7168 34.4111C38.9332 34.5273 39.103 34.6868 39.226 34.8896C39.3514 35.0902 39.4197 35.318 39.4311 35.5732H38.8296C38.8182 35.4206 38.7749 35.2827 38.6997 35.1597C38.6268 35.0366 38.5265 34.9386 38.3989 34.8657C38.2736 34.7905 38.1266 34.7529 37.958 34.7529C37.7643 34.7529 37.6014 34.7917 37.4692 34.8691C37.3393 34.9443 37.2356 35.0469 37.1582 35.1768C37.083 35.3044 37.0283 35.4468 36.9941 35.604C36.9622 35.759 36.9463 35.9173 36.9463 36.0791V36.2227C36.9463 36.3844 36.9622 36.5439 36.9941 36.7012C37.026 36.8584 37.0796 37.0008 37.1548 37.1284C37.2322 37.256 37.3359 37.3586 37.4658 37.436C37.598 37.5112 37.762 37.5488 37.958 37.5488ZM39.9746 36.1919V36.1133C39.9746 35.8467 40.0133 35.5994 40.0908 35.3716C40.1683 35.1414 40.2799 34.9421 40.4258 34.7734C40.5716 34.6025 40.7482 34.4704 40.9555 34.377C41.1629 34.2812 41.3953 34.2334 41.6528 34.2334C41.9126 34.2334 42.1461 34.2812 42.3535 34.377C42.5631 34.4704 42.7409 34.6025 42.8867 34.7734C43.0348 34.9421 43.1476 35.1414 43.2251 35.3716C43.3025 35.5994 43.3413 35.8467 43.3413 36.1133V36.1919C43.3413 36.4585 43.3025 36.7057 43.2251 36.9336C43.1476 37.1615 43.0348 37.3608 42.8867 37.5317C42.7409 37.7004 42.5643 37.8325 42.3569 37.9282C42.1518 38.0216 41.9194 38.0684 41.6596 38.0684C41.3999 38.0684 41.1663 38.0216 40.959 37.9282C40.7516 37.8325 40.5739 37.7004 40.4258 37.5317C40.2799 37.3608 40.1683 37.1615 40.0908 36.9336C40.0133 36.7057 39.9746 36.4585 39.9746 36.1919ZM40.6069 36.1133V36.1919C40.6069 36.3765 40.6286 36.5508 40.6718 36.7148C40.7151 36.8766 40.7801 37.0202 40.8667 37.1455C40.9555 37.2708 41.0661 37.37 41.1982 37.4429C41.3304 37.5135 41.4842 37.5488 41.6596 37.5488C41.8328 37.5488 41.9843 37.5135 42.1142 37.4429C42.2464 37.37 42.3558 37.2708 42.4424 37.1455C42.5289 37.0202 42.5939 36.8766 42.6372 36.7148C42.6827 36.5508 42.7055 36.3765 42.7055 36.1919V36.1133C42.7055 35.931 42.6827 35.759 42.6372 35.5972C42.5939 35.4331 42.5278 35.2884 42.4389 35.1631C42.3523 35.0355 42.243 34.9352 42.1108 34.8623C41.9809 34.7894 41.8283 34.7529 41.6528 34.7529C41.4796 34.7529 41.327 34.7894 41.1948 34.8623C41.0649 34.9352 40.9555 35.0355 40.8667 35.1631C40.7801 35.2884 40.7151 35.4331 40.6718 35.5972C40.6286 35.759 40.6069 35.931 40.6069 36.1133ZM44.7666 35.0913V38H44.1342V34.3018H44.7324L44.7666 35.0913ZM44.6162 36.0107L44.353 36.0005C44.3553 35.7476 44.3929 35.514 44.4658 35.2998C44.5387 35.0833 44.6412 34.8953 44.7734 34.7358C44.9056 34.5763 45.0628 34.4533 45.2451 34.3667C45.4297 34.2778 45.6336 34.2334 45.8569 34.2334C46.0392 34.2334 46.2033 34.2585 46.3491 34.3086C46.4949 34.3564 46.6191 34.4339 46.7216 34.541C46.8265 34.6481 46.9062 34.7871 46.9609 34.958C47.0156 35.1266 47.0429 35.3328 47.0429 35.5767V38H46.4072V35.5698C46.4072 35.3761 46.3787 35.2212 46.3217 35.105C46.2648 34.9865 46.1816 34.901 46.0722 34.8486C45.9629 34.7939 45.8284 34.7666 45.6689 34.7666C45.5117 34.7666 45.3681 34.7996 45.2383 34.8657C45.1106 34.9318 45.0001 35.0229 44.9067 35.1392C44.8156 35.2554 44.7438 35.3887 44.6914 35.5391C44.6412 35.6872 44.6162 35.8444 44.6162 36.0107ZM50.3344 37.2822V32.75H50.9702V38H50.3891L50.3344 37.2822ZM47.8462 36.1919V36.1201C47.8462 35.8376 47.8803 35.5812 47.9487 35.3511C48.0193 35.1187 48.1185 34.9193 48.2461 34.7529C48.3759 34.5866 48.5298 34.459 48.7075 34.3701C48.8875 34.279 49.088 34.2334 49.3091 34.2334C49.5415 34.2334 49.7443 34.2744 49.9174 34.3564C50.0929 34.4362 50.241 34.5535 50.3618 34.7085C50.4848 34.8612 50.5817 35.0457 50.6523 35.2622C50.723 35.4787 50.7719 35.7236 50.7993 35.9971V36.3115C50.7742 36.5827 50.7252 36.8265 50.6523 37.043C50.5817 37.2594 50.4848 37.444 50.3618 37.5967C50.241 37.7493 50.0929 37.8667 49.9174 37.9487C49.742 38.0285 49.5369 38.0684 49.3022 38.0684C49.0857 38.0684 48.8875 38.0216 48.7075 37.9282C48.5298 37.8348 48.3759 37.7038 48.2461 37.5352C48.1185 37.3665 48.0193 37.1683 47.9487 36.9404C47.8803 36.7103 47.8462 36.4608 47.8462 36.1919ZM48.4819 36.1201V36.1919C48.4819 36.3765 48.5001 36.5496 48.5366 36.7114C48.5753 36.8732 48.6346 37.0156 48.7143 37.1387C48.7941 37.2617 48.8955 37.3586 49.0185 37.4292C49.1416 37.4976 49.2885 37.5317 49.4594 37.5317C49.6691 37.5317 49.8411 37.4873 49.9756 37.3984C50.1123 37.3096 50.2216 37.1922 50.3037 37.0464C50.3857 36.9006 50.4495 36.7422 50.4951 36.5713V35.7476C50.4677 35.6222 50.4279 35.5015 50.3755 35.3853C50.3253 35.2668 50.2592 35.1619 50.1772 35.0708C50.0975 34.9774 49.9983 34.9033 49.8799 34.8486C49.7636 34.7939 49.6258 34.7666 49.4663 34.7666C49.2931 34.7666 49.1438 34.8031 49.0185 34.876C48.8955 34.9466 48.7941 35.0446 48.7143 35.1699C48.6346 35.293 48.5753 35.4365 48.5366 35.6006C48.5001 35.7624 48.4819 35.9355 48.4819 36.1201ZM54.1352 37.3677V35.4639C54.1352 35.318 54.1056 35.1916 54.0464 35.0845C53.9894 34.9751 53.9028 34.8908 53.7866 34.8315C53.6704 34.7723 53.5268 34.7427 53.3559 34.7427C53.1964 34.7427 53.0563 34.77 52.9355 34.8247C52.817 34.8794 52.7236 34.9512 52.6552 35.04C52.5892 35.1289 52.5561 35.2246 52.5561 35.3271H51.9238C51.9238 35.195 51.958 35.064 52.0263 34.9341C52.0947 34.8042 52.1927 34.6868 52.3203 34.582C52.4502 34.4749 52.6051 34.3906 52.7851 34.3291C52.9674 34.2653 53.1702 34.2334 53.3935 34.2334C53.6624 34.2334 53.8994 34.279 54.1045 34.3701C54.3118 34.4613 54.4736 34.5991 54.5898 34.7837C54.7083 34.966 54.7675 35.195 54.7675 35.4707V37.1934C54.7675 37.3164 54.7778 37.4474 54.7983 37.5864C54.8211 37.7254 54.8541 37.8451 54.8974 37.9453V38H54.2378C54.2059 37.9271 54.1808 37.8302 54.1626 37.7095C54.1443 37.5864 54.1352 37.4725 54.1352 37.3677ZM54.2446 35.7578L54.2514 36.2021H53.6123C53.4323 36.2021 53.2716 36.217 53.1303 36.2466C52.9891 36.2739 52.8706 36.3161 52.7749 36.373C52.6792 36.43 52.6063 36.5018 52.5561 36.5884C52.506 36.6727 52.4809 36.7718 52.4809 36.8857C52.4809 37.002 52.5071 37.1079 52.5595 37.2036C52.6119 37.2993 52.6906 37.3757 52.7954 37.4326C52.9025 37.4873 53.0335 37.5146 53.1884 37.5146C53.3821 37.5146 53.553 37.4736 53.7011 37.3916C53.8493 37.3096 53.9666 37.2093 54.0532 37.0908C54.1421 36.9723 54.1899 36.8573 54.1967 36.7456L54.4668 37.0498C54.4508 37.1455 54.4075 37.2515 54.3369 37.3677C54.2662 37.4839 54.1717 37.5955 54.0532 37.7026C53.937 37.8075 53.798 37.8952 53.6362 37.9658C53.4767 38.0342 53.2967 38.0684 53.0962 38.0684C52.8455 38.0684 52.6256 38.0194 52.4365 37.9214C52.2496 37.8234 52.1038 37.6924 51.999 37.5283C51.8965 37.362 51.8452 37.1763 51.8452 36.9712C51.8452 36.7729 51.8839 36.5986 51.9614 36.4482C52.0389 36.2956 52.1505 36.1691 52.2964 36.0688C52.4422 35.9663 52.6176 35.8888 52.8227 35.8364C53.0278 35.784 53.2568 35.7578 53.5097 35.7578H54.2446ZM56.3945 34.8828V38H55.7622V34.3018H56.3774L56.3945 34.8828ZM57.5498 34.2812L57.5464 34.8691C57.4939 34.8577 57.4438 34.8509 57.396 34.8486C57.3504 34.8441 57.298 34.8418 57.2387 34.8418C57.0929 34.8418 56.9642 34.8646 56.8525 34.9102C56.7409 34.9557 56.6463 35.0195 56.5688 35.1016C56.4913 35.1836 56.4298 35.2816 56.3842 35.3955C56.341 35.5072 56.3125 35.6302 56.2988 35.7646L56.1211 35.8672C56.1211 35.6439 56.1427 35.4342 56.186 35.2383C56.2316 35.0423 56.3011 34.8691 56.3945 34.7188C56.4879 34.5661 56.6064 34.4476 56.75 34.3633C56.8958 34.2767 57.069 34.2334 57.2695 34.2334C57.3151 34.2334 57.3675 34.2391 57.4267 34.2505C57.486 34.2596 57.527 34.2699 57.5498 34.2812ZM59.2348 37.6172L60.2636 34.3018H60.9404L59.457 38.5708C59.4228 38.6619 59.3772 38.7599 59.3203 38.8647C59.2656 38.9718 59.195 39.0732 59.1084 39.1689C59.0218 39.2646 58.917 39.3421 58.7939 39.4014C58.6731 39.4629 58.5285 39.4937 58.3598 39.4937C58.3097 39.4937 58.2459 39.4868 58.1684 39.4731C58.091 39.4595 58.0363 39.4481 58.0044 39.439L58.0009 38.9263C58.0192 38.9285 58.0477 38.9308 58.0864 38.9331C58.1274 38.9377 58.1559 38.9399 58.1718 38.9399C58.3154 38.9399 58.4373 38.9206 58.5376 38.8818C58.6378 38.8454 58.7221 38.7827 58.7905 38.6938C58.8611 38.6073 58.9215 38.4876 58.9716 38.335L59.2348 37.6172ZM58.4795 34.3018L59.4399 37.1729L59.604 37.8394L59.1494 38.0718L57.789 34.3018H58.4795ZM64.7959 34.3018V34.7871H62.7964V34.3018H64.7959ZM63.4731 33.4028H64.1054V37.084C64.1054 37.2093 64.1248 37.3039 64.1635 37.3677C64.2023 37.4315 64.2524 37.4736 64.3139 37.4941C64.3755 37.5146 64.4415 37.5249 64.5122 37.5249C64.5646 37.5249 64.6193 37.5203 64.6762 37.5112C64.7355 37.4998 64.7799 37.4907 64.8095 37.4839L64.813 38C64.7628 38.016 64.6967 38.0308 64.6147 38.0444C64.535 38.0604 64.4381 38.0684 64.3242 38.0684C64.1692 38.0684 64.0268 38.0376 63.8969 37.9761C63.7671 37.9146 63.6634 37.812 63.5859 37.6685C63.5107 37.5226 63.4731 37.3267 63.4731 37.0806V33.4028ZM67.0722 38.0684C66.8147 38.0684 66.5812 38.0251 66.3716 37.9385C66.1642 37.8496 65.9853 37.7254 65.8349 37.5659C65.6868 37.4064 65.5729 37.2173 65.4931 36.9985C65.4134 36.7798 65.3735 36.5405 65.3735 36.2808V36.1372C65.3735 35.8364 65.4179 35.5687 65.5068 35.334C65.5957 35.097 65.7164 34.8965 65.8691 34.7324C66.0218 34.5684 66.195 34.4442 66.3886 34.3599C66.5823 34.2756 66.7828 34.2334 66.9902 34.2334C67.2545 34.2334 67.4824 34.279 67.6738 34.3701C67.8675 34.4613 68.0258 34.5889 68.1489 34.7529C68.2719 34.9147 68.3631 35.1061 68.4223 35.3271C68.4816 35.5459 68.5112 35.7852 68.5112 36.0449V36.3286H65.7495V35.8125H67.8789V35.7646C67.8698 35.6006 67.8356 35.4411 67.7763 35.2861C67.7194 35.1312 67.6282 35.0036 67.5029 34.9033C67.3776 34.8031 67.2067 34.7529 66.9902 34.7529C66.8466 34.7529 66.7145 34.7837 66.5937 34.8452C66.473 34.9045 66.3693 34.9933 66.2827 35.1118C66.1961 35.2303 66.1289 35.375 66.081 35.5459C66.0332 35.7168 66.0092 35.9139 66.0092 36.1372V36.2808C66.0092 36.4562 66.0332 36.6214 66.081 36.7764C66.1312 36.929 66.2029 37.0635 66.2964 37.1797C66.3921 37.2959 66.5071 37.387 66.6416 37.4531C66.7783 37.5192 66.9332 37.5522 67.1064 37.5522C67.3297 37.5522 67.5188 37.5067 67.6738 37.4155C67.8287 37.3244 67.9643 37.2025 68.0805 37.0498L68.4633 37.354C68.3836 37.4748 68.2822 37.5898 68.1591 37.6992C68.0361 37.8086 67.8846 37.8975 67.7046 37.9658C67.5268 38.0342 67.3161 38.0684 67.0722 38.0684ZM69.6767 34.3018L70.4868 35.6484L71.3071 34.3018H72.0488L70.8388 36.127L72.0864 38H71.3549L70.5005 36.6123L69.646 38H68.9111L70.1552 36.127L68.9487 34.3018H69.6767ZM74.2705 34.3018V34.7871H72.271V34.3018H74.2705ZM72.9477 33.4028H73.58V37.084C73.58 37.2093 73.5994 37.3039 73.6382 37.3677C73.6769 37.4315 73.727 37.4736 73.7885 37.4941C73.8501 37.5146 73.9161 37.5249 73.9868 37.5249C74.0392 37.5249 74.0939 37.5203 74.1508 37.5112C74.2101 37.4998 74.2545 37.4907 74.2841 37.4839L74.2876 38C74.2374 38.016 74.1714 38.0308 74.0893 38.0444C74.0096 38.0604 73.9127 38.0684 73.7988 38.0684C73.6438 38.0684 73.5014 38.0376 73.3716 37.9761C73.2417 37.9146 73.138 37.812 73.0605 37.6685C72.9853 37.5226 72.9477 37.3267 72.9477 37.0806V33.4028Z" fill="#4F4F4F"/>
<ellipse cx="200.816" cy="24" rx="6.16744" ry="6" fill="#BDBDBD"/>
<rect x="199.788" y="22.6667" width="2.0558" height="5.33332" rx="1.0279" fill="white"/>
<rect x="199.788" y="20" width="2.0558" height="2" rx="0.999998" fill="white"/>
<rect x="42.2547" y="68.25" width="164.479" height="83" stroke="#ECECEC" stroke-width="0.5"/>
<path d="M42.0047 83.5H206.984" stroke="#ECECEC" stroke-width="0.5"/>
<path d="M42.0047 101H206.984" stroke="#ECECEC" stroke-width="0.5"/>
<path d="M42.0047 118.5H206.984" stroke="#ECECEC" stroke-width="0.5"/>
<path d="M42.0047 136H206.984" stroke="#ECECEC" stroke-width="0.5"/>
<path d="M69.7581 68L69.7581 151.5" stroke="#ECECEC" stroke-width="0.5"/>
<path d="M96.9977 68L96.9977 151.5" stroke="#ECECEC" stroke-width="0.5"/>
<path d="M124.237 68L124.237 151.5" stroke="#ECECEC" stroke-width="0.5"/>
<path d="M151.477 68L151.477 151.5" stroke="#ECECEC" stroke-width="0.5"/>
<path d="M178.716 68L178.716 151.5" stroke="#ECECEC" stroke-width="0.5"/>
<path d="M32.4204 149.56C32.0993 149.56 31.8259 149.472 31.6 149.298C31.3742 149.121 31.2016 148.866 31.0823 148.533C30.963 148.197 30.9033 147.793 30.9033 147.318C30.9033 146.847 30.963 146.444 31.0823 146.11C31.203 145.775 31.3763 145.519 31.6022 145.343C31.8295 145.165 32.1022 145.077 32.4204 145.077C32.7385 145.077 33.0106 145.165 33.2364 145.343C33.4637 145.519 33.637 145.775 33.7563 146.11C33.877 146.444 33.9374 146.847 33.9374 147.318C33.9374 147.793 33.8777 148.197 33.7584 148.533C33.6391 148.866 33.4665 149.121 33.2407 149.298C33.0148 149.472 32.7414 149.56 32.4204 149.56ZM32.4204 149.091C32.7385 149.091 32.9857 148.937 33.1618 148.631C33.338 148.324 33.426 147.886 33.426 147.318C33.426 146.94 33.3856 146.619 33.3046 146.353C33.225 146.087 33.11 145.885 32.9594 145.746C32.8103 145.607 32.6306 145.537 32.4204 145.537C32.105 145.537 31.8586 145.692 31.681 146.004C31.5035 146.313 31.4147 146.751 31.4147 147.318C31.4147 147.696 31.4545 148.017 31.534 148.281C31.6135 148.545 31.7279 148.746 31.877 148.884C32.0276 149.022 32.2087 149.091 32.4204 149.091Z" fill="#4F4F4F"/>
<path d="M27.3643 134V133.616L28.8046 132.04C28.9736 131.855 29.1128 131.695 29.2222 131.558C29.3316 131.42 29.4125 131.291 29.4651 131.17C29.5191 131.048 29.5461 130.92 29.5461 130.787C29.5461 130.634 29.5091 130.501 29.4353 130.388C29.3628 130.276 29.2634 130.19 29.137 130.129C29.0106 130.067 28.8685 130.037 28.7108 130.037C28.5432 130.037 28.3969 130.072 28.2719 130.141C28.1483 130.21 28.0525 130.305 27.9843 130.429C27.9175 130.553 27.8841 130.697 27.8841 130.864H27.3813C27.3813 130.608 27.4402 130.384 27.5581 130.19C27.676 129.997 27.8366 129.847 28.0397 129.739C28.2442 129.631 28.4736 129.577 28.7279 129.577C28.9836 129.577 29.2101 129.631 29.4076 129.739C29.605 129.847 29.7599 129.992 29.8721 130.175C29.9843 130.359 30.0404 130.562 30.0404 130.787C30.0404 130.947 30.0113 131.104 29.953 131.258C29.8962 131.41 29.7968 131.58 29.6547 131.767C29.5141 131.953 29.3188 132.18 29.0688 132.449L28.0887 133.497V133.531H30.1171V134H27.3643ZM32.4204 134.06C32.0993 134.06 31.8259 133.972 31.6 133.798C31.3742 133.621 31.2016 133.366 31.0823 133.033C30.963 132.697 30.9033 132.293 30.9033 131.818C30.9033 131.347 30.963 130.944 31.0823 130.61C31.203 130.275 31.3763 130.019 31.6022 129.843C31.8295 129.665 32.1022 129.577 32.4204 129.577C32.7385 129.577 33.0106 129.665 33.2364 129.843C33.4637 130.019 33.637 130.275 33.7563 130.61C33.877 130.944 33.9374 131.347 33.9374 131.818C33.9374 132.293 33.8777 132.697 33.7584 133.033C33.6391 133.366 33.4665 133.621 33.2407 133.798C33.0148 133.972 32.7414 134.06 32.4204 134.06ZM32.4204 133.591C32.7385 133.591 32.9857 133.437 33.1618 133.131C33.338 132.824 33.426 132.386 33.426 131.818C33.426 131.44 33.3856 131.119 33.3046 130.853C33.225 130.587 33.11 130.385 32.9594 130.246C32.8103 130.107 32.6306 130.037 32.4204 130.037C32.105 130.037 31.8586 130.192 31.681 130.504C31.5035 130.813 31.4147 131.251 31.4147 131.818C31.4147 132.196 31.4545 132.517 31.534 132.781C31.6135 133.045 31.7279 133.246 31.877 133.384C32.0276 133.522 32.2087 133.591 32.4204 133.591Z" fill="#4F4F4F"/>
<path d="M27.0452 117.605V117.17L28.9628 114.136H29.2781V114.81H29.0651L27.6162 117.102V117.136H30.1986V117.605H27.0452ZM29.0992 118.5V117.473V117.271V114.136H29.602V118.5H29.0992ZM32.4204 118.56C32.0993 118.56 31.8259 118.472 31.6 118.298C31.3742 118.121 31.2016 117.866 31.0823 117.533C30.963 117.197 30.9033 116.793 30.9033 116.318C30.9033 115.847 30.963 115.444 31.0823 115.11C31.203 114.775 31.3763 114.519 31.6022 114.343C31.8295 114.165 32.1022 114.077 32.4204 114.077C32.7385 114.077 33.0106 114.165 33.2364 114.343C33.4637 114.519 33.637 114.775 33.7563 115.11C33.877 115.444 33.9374 115.847 33.9374 116.318C33.9374 116.793 33.8777 117.197 33.7584 117.533C33.6391 117.866 33.4665 118.121 33.2407 118.298C33.0148 118.472 32.7414 118.56 32.4204 118.56ZM32.4204 118.091C32.7385 118.091 32.9857 117.937 33.1618 117.631C33.338 117.324 33.426 116.886 33.426 116.318C33.426 115.94 33.3856 115.619 33.3046 115.353C33.225 115.087 33.11 114.885 32.9594 114.746C32.8103 114.607 32.6306 114.537 32.4204 114.537C32.105 114.537 31.8586 114.692 31.681 115.004C31.5035 115.313 31.4147 115.751 31.4147 116.318C31.4147 116.696 31.4545 117.017 31.534 117.281C31.6135 117.545 31.7279 117.746 31.877 117.884C32.0276 118.022 32.2087 118.091 32.4204 118.091Z" fill="#4F4F4F"/>
<path d="M28.7018 101.06C28.5228 101.057 28.3438 101.023 28.1649 100.957C27.9859 100.892 27.8225 100.782 27.6748 100.627C27.5271 100.471 27.4085 100.26 27.319 99.9943C27.2295 99.7273 27.1847 99.392 27.1847 98.9886C27.1847 98.6023 27.221 98.2599 27.2934 97.9616C27.3659 97.6619 27.471 97.4098 27.6087 97.2053C27.7465 96.9993 27.9127 96.843 28.1073 96.7365C28.3034 96.63 28.5242 96.5767 28.77 96.5767C29.0143 96.5767 29.2316 96.6257 29.422 96.7237C29.6137 96.8203 29.77 96.9553 29.8907 97.1286C30.0114 97.3018 30.0896 97.5014 30.1251 97.7273H29.6052C29.5569 97.5312 29.4632 97.3686 29.3239 97.2393C29.1847 97.1101 29.0001 97.0455 28.77 97.0455C28.4319 97.0455 28.1656 97.1925 27.971 97.4865C27.7778 97.7805 27.6805 98.1932 27.6791 98.7244H27.7132C27.7927 98.6037 27.8872 98.5007 27.9965 98.4155C28.1073 98.3288 28.2295 98.2621 28.363 98.2152C28.4965 98.1683 28.6379 98.1449 28.787 98.1449C29.037 98.1449 29.2657 98.2074 29.4731 98.3324C29.6805 98.456 29.8467 98.6271 29.9717 98.8459C30.0967 99.0632 30.1592 99.3125 30.1592 99.5938C30.1592 99.8636 30.0988 100.111 29.9781 100.335C29.8573 100.558 29.6876 100.736 29.4688 100.868C29.2515 100.999 28.9958 101.062 28.7018 101.06ZM28.7018 100.591C28.8808 100.591 29.0413 100.546 29.1833 100.457C29.3268 100.367 29.4397 100.247 29.5221 100.097C29.6059 99.946 29.6478 99.7784 29.6478 99.5938C29.6478 99.4134 29.6073 99.2493 29.5264 99.1016C29.4468 98.9524 29.3367 98.8338 29.1961 98.7457C29.0569 98.6577 28.8978 98.6136 28.7188 98.6136C28.5839 98.6136 28.4582 98.6406 28.3417 98.6946C28.2252 98.7472 28.123 98.8196 28.0349 98.9119C27.9482 99.0043 27.8801 99.1101 27.8303 99.2294C27.7806 99.3473 27.7558 99.4716 27.7558 99.6023C27.7558 99.7756 27.7962 99.9375 27.8772 100.088C27.9596 100.239 28.0718 100.36 28.2139 100.452C28.3573 100.545 28.52 100.591 28.7018 100.591ZM32.4204 101.06C32.0993 101.06 31.8259 100.972 31.6 100.798C31.3742 100.621 31.2016 100.366 31.0823 100.033C30.963 99.6974 30.9033 99.2926 30.9033 98.8182C30.9033 98.3466 30.963 97.9439 31.0823 97.6101C31.203 97.2749 31.3763 97.0192 31.6022 96.843C31.8295 96.6655 32.1022 96.5767 32.4204 96.5767C32.7385 96.5767 33.0106 96.6655 33.2364 96.843C33.4637 97.0192 33.637 97.2749 33.7563 97.6101C33.877 97.9439 33.9374 98.3466 33.9374 98.8182C33.9374 99.2926 33.8777 99.6974 33.7584 100.033C33.6391 100.366 33.4665 100.621 33.2407 100.798C33.0148 100.972 32.7414 101.06 32.4204 101.06ZM32.4204 100.591C32.7385 100.591 32.9857 100.437 33.1618 100.131C33.338 99.8239 33.426 99.3864 33.426 98.8182C33.426 98.4403 33.3856 98.1186 33.3046 97.853C33.225 97.5874 33.11 97.3849 32.9594 97.2457C32.8103 97.1065 32.6306 97.0369 32.4204 97.0369C32.105 97.0369 31.8586 97.1925 31.681 97.5036C31.5035 97.8132 31.4147 98.2514 31.4147 98.8182C31.4147 99.196 31.4545 99.517 31.534 99.7812C31.6135 100.045 31.7279 100.246 31.877 100.384C32.0276 100.522 32.2087 100.591 32.4204 100.591Z" fill="#4F4F4F"/>
<path d="M28.6975 83.5597C28.4049 83.5597 28.1464 83.5078 27.922 83.4041C27.6989 83.299 27.5249 83.1548 27.3999 82.9716C27.2749 82.7869 27.2132 82.5767 27.2146 82.3409C27.2132 82.1562 27.2494 81.9858 27.3232 81.8295C27.3971 81.6719 27.498 81.5405 27.6258 81.4354C27.7551 81.3288 27.8992 81.2614 28.0583 81.233V81.2074C27.8495 81.1534 27.6833 81.0362 27.5597 80.8558C27.4362 80.674 27.3751 80.4673 27.3765 80.2358C27.3751 80.0142 27.4312 79.8161 27.5448 79.6413C27.6585 79.4666 27.8147 79.3288 28.0136 79.228C28.2139 79.1271 28.4418 79.0767 28.6975 79.0767C28.9504 79.0767 29.1762 79.1271 29.3751 79.228C29.5739 79.3288 29.7302 79.4666 29.8438 79.6413C29.9589 79.8161 30.0171 80.0142 30.0186 80.2358C30.0171 80.4673 29.9539 80.674 29.8289 80.8558C29.7053 81.0362 29.5413 81.1534 29.3367 81.2074V81.233C29.4944 81.2614 29.6364 81.3288 29.7629 81.4354C29.8893 81.5405 29.9901 81.6719 30.0654 81.8295C30.1407 81.9858 30.1791 82.1562 30.1805 82.3409C30.1791 82.5767 30.1151 82.7869 29.9887 82.9716C29.8637 83.1548 29.6897 83.299 29.4667 83.4041C29.2451 83.5078 28.9887 83.5597 28.6975 83.5597ZM28.6975 83.0909C28.895 83.0909 29.0654 83.0589 29.2089 82.995C29.3524 82.9311 29.4632 82.8409 29.5413 82.7244C29.6194 82.608 29.6592 82.4716 29.6606 82.3153C29.6592 82.1506 29.6166 82.005 29.5328 81.8786C29.4489 81.7521 29.3346 81.6527 29.1897 81.5803C29.0462 81.5078 28.8822 81.4716 28.6975 81.4716C28.5114 81.4716 28.3453 81.5078 28.1989 81.5803C28.0541 81.6527 27.9397 81.7521 27.8559 81.8786C27.7735 82.005 27.733 82.1506 27.7345 82.3153C27.733 82.4716 27.7707 82.608 27.8474 82.7244C27.9255 82.8409 28.037 82.9311 28.1819 82.995C28.3268 83.0589 28.4987 83.0909 28.6975 83.0909ZM28.6975 81.0199C28.8538 81.0199 28.9923 80.9886 29.113 80.9261C29.2352 80.8636 29.3311 80.7763 29.4007 80.6641C29.4703 80.5518 29.5058 80.4205 29.5072 80.2699C29.5058 80.1222 29.471 79.9936 29.4028 79.8842C29.3346 79.7734 29.2401 79.6882 29.1194 79.6286C28.9987 79.5675 28.858 79.5369 28.6975 79.5369C28.5342 79.5369 28.3914 79.5675 28.2693 79.6286C28.1471 79.6882 28.0526 79.7734 27.9859 79.8842C27.9191 79.9936 27.8864 80.1222 27.8879 80.2699C27.8864 80.4205 27.9198 80.5518 27.988 80.6641C28.0576 80.7763 28.1535 80.8636 28.2757 80.9261C28.3978 80.9886 28.5384 81.0199 28.6975 81.0199ZM32.4204 83.5597C32.0993 83.5597 31.8259 83.4723 31.6 83.2976C31.3742 83.1214 31.2016 82.8665 31.0823 82.5327C30.963 82.1974 30.9033 81.7926 30.9033 81.3182C30.9033 80.8466 30.963 80.4439 31.0823 80.1101C31.203 79.7749 31.3763 79.5192 31.6022 79.343C31.8295 79.1655 32.1022 79.0767 32.4204 79.0767C32.7385 79.0767 33.0106 79.1655 33.2364 79.343C33.4637 79.5192 33.637 79.7749 33.7563 80.1101C33.877 80.4439 33.9374 80.8466 33.9374 81.3182C33.9374 81.7926 33.8777 82.1974 33.7584 82.5327C33.6391 82.8665 33.4665 83.1214 33.2407 83.2976C33.0148 83.4723 32.7414 83.5597 32.4204 83.5597ZM32.4204 83.0909C32.7385 83.0909 32.9857 82.9375 33.1618 82.6307C33.338 82.3239 33.426 81.8864 33.426 81.3182C33.426 80.9403 33.3856 80.6186 33.3046 80.353C33.225 80.0874 33.11 79.8849 32.9594 79.7457C32.8103 79.6065 32.6306 79.5369 32.4204 79.5369C32.105 79.5369 31.8586 79.6925 31.681 80.0036C31.5035 80.3132 31.4147 80.7514 31.4147 81.3182C31.4147 81.696 31.4545 82.017 31.534 82.2812C31.6135 82.5455 31.7279 82.7464 31.877 82.8842C32.0276 83.022 32.2087 83.0909 32.4204 83.0909Z" fill="#4F4F4F"/>
<path d="M25.9921 63.6364V68H25.4637V64.1903H25.4381L24.3728 64.8977V64.3608L25.4637 63.6364H25.9921ZM28.6704 68.0597C28.3493 68.0597 28.0759 67.9723 27.85 67.7976C27.6242 67.6214 27.4516 67.3665 27.3323 67.0327C27.213 66.6974 27.1533 66.2926 27.1533 65.8182C27.1533 65.3466 27.213 64.9439 27.3323 64.6101C27.453 64.2749 27.6263 64.0192 27.8522 63.843C28.0795 63.6655 28.3522 63.5767 28.6704 63.5767C28.9885 63.5767 29.2606 63.6655 29.4864 63.843C29.7137 64.0192 29.887 64.2749 30.0063 64.6101C30.127 64.9439 30.1874 65.3466 30.1874 65.8182C30.1874 66.2926 30.1277 66.6974 30.0084 67.0327C29.8891 67.3665 29.7165 67.6214 29.4907 67.7976C29.2648 67.9723 28.9914 68.0597 28.6704 68.0597ZM28.6704 67.5909C28.9885 67.5909 29.2357 67.4375 29.4118 67.1307C29.588 66.8239 29.676 66.3864 29.676 65.8182C29.676 65.4403 29.6356 65.1186 29.5546 64.853C29.475 64.5874 29.36 64.3849 29.2094 64.2457C29.0603 64.1065 28.8806 64.0369 28.6704 64.0369C28.355 64.0369 28.1086 64.1925 27.931 64.5036C27.7535 64.8132 27.6647 65.2514 27.6647 65.8182C27.6647 66.196 27.7045 66.517 27.784 66.7812C27.8635 67.0455 27.9779 67.2464 28.127 67.3842C28.2776 67.522 28.4587 67.5909 28.6704 67.5909ZM32.4204 68.0597C32.0993 68.0597 31.8259 67.9723 31.6 67.7976C31.3742 67.6214 31.2016 67.3665 31.0823 67.0327C30.963 66.6974 30.9033 66.2926 30.9033 65.8182C30.9033 65.3466 30.963 64.9439 31.0823 64.6101C31.203 64.2749 31.3763 64.0192 31.6022 63.843C31.8295 63.6655 32.1022 63.5767 32.4204 63.5767C32.7385 63.5767 33.0106 63.6655 33.2364 63.843C33.4637 64.0192 33.637 64.2749 33.7563 64.6101C33.877 64.9439 33.9374 65.3466 33.9374 65.8182C33.9374 66.2926 33.8777 66.6974 33.7584 67.0327C33.6391 67.3665 33.4665 67.6214 33.2407 67.7976C33.0148 67.9723 32.7414 68.0597 32.4204 68.0597ZM32.4204 67.5909C32.7385 67.5909 32.9857 67.4375 33.1618 67.1307C33.338 66.8239 33.426 66.3864 33.426 65.8182C33.426 65.4403 33.3856 65.1186 33.3046 64.853C33.225 64.5874 33.11 64.3849 32.9594 64.2457C32.8103 64.1065 32.6306 64.0369 32.4204 64.0369C32.105 64.0369 31.8586 64.1925 31.681 64.5036C31.5035 64.8132 31.4147 65.2514 31.4147 65.8182C31.4147 66.196 31.4545 66.517 31.534 66.7812C31.6135 67.0455 31.7279 67.2464 31.877 67.3842C32.0276 67.522 32.2087 67.5909 32.4204 67.5909Z" fill="#4F4F4F"/>
<path d="M5 53.5H226" stroke="#ECECEC"/>
<rect x="42.5047" y="138" width="8.25116" height="12.5" rx="0.5" fill="#63ABFD" stroke="#165BAA"/>
<rect x="96.9837" y="119" width="8.25117" height="31" rx="3" fill="#63ABFD" stroke="#165BAA"/>
<rect x="69.7442" y="130.5" width="8.25116" height="19.5" rx="3" fill="#63ABFD" stroke="#165BAA"/>
<rect x="124.223" y="130.5" width="9.27906" height="20" rx="4.63953" fill="#63ABFD" stroke="#165BAA"/>
<rect x="152.491" y="143" width="8.25117" height="7.5" rx="3.75" fill="#63ABFD" stroke="#165BAA"/>
<rect x="179.73" y="133" width="8.25116" height="18" rx="4.12558" fill="#63ABFD" stroke="#165BAA"/>
<path d="M57.9517 187V182.636H59.4261C59.7684 182.636 60.0483 182.698 60.2656 182.822C60.4843 182.944 60.6463 183.109 60.7514 183.318C60.8565 183.527 60.9091 183.76 60.9091 184.017C60.9091 184.274 60.8565 184.508 60.7514 184.718C60.6477 184.928 60.4872 185.096 60.2699 185.221C60.0525 185.344 59.7741 185.406 59.4346 185.406H58.3778V184.938H59.4176C59.652 184.938 59.8402 184.897 59.9822 184.816C60.1243 184.735 60.2272 184.626 60.2912 184.488C60.3565 184.349 60.3892 184.192 60.3892 184.017C60.3892 183.842 60.3565 183.686 60.2912 183.548C60.2272 183.411 60.1235 183.303 59.9801 183.224C59.8366 183.145 59.6463 183.105 59.4091 183.105H58.4801V187H57.9517ZM61.6921 187V183.727H62.1779V184.222H62.212C62.2716 184.06 62.3796 183.928 62.5358 183.827C62.6921 183.727 62.8682 183.676 63.0642 183.676C63.1012 183.676 63.1473 183.677 63.2027 183.678C63.2581 183.68 63.3 183.682 63.3284 183.685V184.196C63.3114 184.192 63.2723 184.185 63.2113 184.177C63.1516 184.167 63.0884 184.162 63.0216 184.162C62.8625 184.162 62.7205 184.195 62.5955 184.262C62.4719 184.327 62.3739 184.418 62.3015 184.535C62.2304 184.65 62.1949 184.781 62.1949 184.929V187H61.6921ZM65.1544 187.068C64.859 187.068 64.5998 186.998 64.3767 186.857C64.1552 186.717 63.9819 186.52 63.8569 186.267C63.7333 186.014 63.6715 185.719 63.6715 185.381C63.6715 185.04 63.7333 184.742 63.8569 184.488C63.9819 184.234 64.1552 184.036 64.3767 183.896C64.5998 183.755 64.859 183.685 65.1544 183.685C65.4499 183.685 65.7084 183.755 65.93 183.896C66.153 184.036 66.3263 184.234 66.4499 184.488C66.5749 184.742 66.6374 185.04 66.6374 185.381C66.6374 185.719 66.5749 186.014 66.4499 186.267C66.3263 186.52 66.153 186.717 65.93 186.857C65.7084 186.998 65.4499 187.068 65.1544 187.068ZM65.1544 186.616C65.3789 186.616 65.5635 186.559 65.7084 186.444C65.8533 186.329 65.9606 186.178 66.0302 185.99C66.0998 185.803 66.1346 185.599 66.1346 185.381C66.1346 185.162 66.0998 184.958 66.0302 184.769C65.9606 184.58 65.8533 184.428 65.7084 184.311C65.5635 184.195 65.3789 184.136 65.1544 184.136C64.93 184.136 64.7454 184.195 64.6005 184.311C64.4556 184.428 64.3483 184.58 64.2787 184.769C64.2091 184.958 64.1743 185.162 64.1743 185.381C64.1743 185.599 64.2091 185.803 64.2787 185.99C64.3483 186.178 64.4556 186.329 64.6005 186.444C64.7454 186.559 64.93 186.616 65.1544 186.616ZM68.6408 187.068C68.368 187.068 68.1273 186.999 67.9185 186.862C67.7097 186.722 67.5463 186.526 67.4284 186.273C67.3105 186.019 67.2516 185.719 67.2516 185.372C67.2516 185.028 67.3105 184.73 67.4284 184.477C67.5463 184.224 67.7104 184.029 67.9206 183.891C68.1308 183.754 68.3737 183.685 68.6493 183.685C68.8624 183.685 69.0307 183.72 69.1543 183.791C69.2793 183.861 69.3744 183.94 69.4398 184.03C69.5065 184.118 69.5584 184.19 69.5953 184.247H69.6379V182.636H70.1408V187H69.655V186.497H69.5953C69.5584 186.557 69.5058 186.632 69.4376 186.723C69.3695 186.812 69.2722 186.893 69.1457 186.964C69.0193 187.033 68.851 187.068 68.6408 187.068ZM68.709 186.616C68.9107 186.616 69.0811 186.564 69.2203 186.459C69.3595 186.352 69.4653 186.205 69.5378 186.018C69.6102 185.829 69.6465 185.611 69.6465 185.364C69.6465 185.119 69.6109 184.906 69.5399 184.722C69.4689 184.538 69.3638 184.394 69.2246 184.292C69.0854 184.188 68.9135 184.136 68.709 184.136C68.4959 184.136 68.3183 184.191 68.1763 184.3C68.0357 184.408 67.9298 184.555 67.8588 184.741C67.7892 184.926 67.7544 185.134 67.7544 185.364C67.7544 185.597 67.7899 185.808 67.8609 185.999C67.9334 186.187 68.0399 186.338 68.1805 186.45C68.3226 186.561 68.4987 186.616 68.709 186.616ZM73.194 185.662V183.727H73.6969V187H73.194V186.446H73.1599C73.0832 186.612 72.9639 186.754 72.802 186.87C72.6401 186.985 72.4355 187.043 72.1884 187.043C71.9838 187.043 71.802 186.998 71.6429 186.908C71.4838 186.817 71.3588 186.681 71.2679 186.499C71.177 186.316 71.1315 186.085 71.1315 185.807V183.727H71.6344V185.773C71.6344 186.011 71.7011 186.202 71.8347 186.344C71.9696 186.486 72.1415 186.557 72.3503 186.557C72.4753 186.557 72.6024 186.525 72.7317 186.461C72.8624 186.397 72.9717 186.299 73.0598 186.167C73.1493 186.035 73.194 185.866 73.194 185.662ZM75.9474 187.068C75.6406 187.068 75.3764 186.996 75.1548 186.851C74.9332 186.706 74.7628 186.506 74.6434 186.252C74.5241 185.998 74.4645 185.707 74.4645 185.381C74.4645 185.048 74.5255 184.755 74.6477 184.501C74.7713 184.245 74.9431 184.045 75.1633 183.902C75.3849 183.757 75.6434 183.685 75.9389 183.685C76.169 183.685 76.3764 183.727 76.561 183.812C76.7457 183.898 76.897 184.017 77.0149 184.17C77.1328 184.324 77.2059 184.503 77.2343 184.707H76.7315C76.6931 184.558 76.6079 184.426 76.4758 184.311C76.3451 184.195 76.169 184.136 75.9474 184.136C75.7514 184.136 75.5795 184.187 75.4318 184.29C75.2855 184.391 75.1711 184.533 75.0887 184.718C75.0078 184.901 74.9673 185.116 74.9673 185.364C74.9673 185.616 75.0071 185.837 75.0866 186.024C75.1676 186.212 75.2812 186.357 75.4275 186.461C75.5753 186.565 75.7485 186.616 75.9474 186.616C76.0781 186.616 76.1967 186.594 76.3032 186.548C76.4098 186.503 76.5 186.438 76.5738 186.352C76.6477 186.267 76.7003 186.165 76.7315 186.045H77.2343C77.2059 186.239 77.1356 186.413 77.0234 186.567C76.9126 186.721 76.7656 186.843 76.5824 186.934C76.4005 187.023 76.1889 187.068 75.9474 187.068ZM79.3927 183.727V184.153H77.6967V183.727H79.3927ZM78.191 182.943H78.6939V186.062C78.6939 186.205 78.7145 186.311 78.7556 186.382C78.7983 186.452 78.8522 186.499 78.9176 186.523C78.9843 186.545 79.0547 186.557 79.1285 186.557C79.1839 186.557 79.2294 186.554 79.2649 186.548C79.3004 186.541 79.3288 186.536 79.3501 186.531L79.4524 186.983C79.4183 186.996 79.3707 187.009 79.3096 187.021C79.2485 187.036 79.1711 187.043 79.0774 187.043C78.9353 187.043 78.7961 187.012 78.6598 186.951C78.5248 186.89 78.4126 186.797 78.3231 186.672C78.2351 186.547 78.191 186.389 78.191 186.199V182.943ZM83.3622 182.636V187H82.8338V183.19H82.8082L81.7429 183.898V183.361L82.8338 182.636H83.3622Z" fill="#4F4F4F"/>
<rect x="42.0047" y="183" width="10.793" height="4" fill="#165BAA"/>
<path d="M50.4015 154.864H50.8419V157.463C50.8419 157.695 50.7993 157.892 50.714 158.054C50.6288 158.217 50.5087 158.34 50.3536 158.424C50.1985 158.508 50.0157 158.55 49.805 158.55C49.6061 158.55 49.4291 158.514 49.2741 158.441C49.119 158.368 48.9971 158.264 48.9083 158.129C48.8195 157.994 48.7751 157.834 48.7751 157.648H49.2084C49.2084 157.751 49.2338 157.841 49.2847 157.918C49.3368 157.993 49.4078 158.053 49.4978 158.095C49.5877 158.138 49.6901 158.159 49.805 158.159C49.9316 158.159 50.0393 158.132 50.1281 158.079C50.2169 158.026 50.2844 157.948 50.3305 157.845C50.3779 157.741 50.4015 157.613 50.4015 157.463V154.864ZM52.4701 158.564C52.2973 158.564 52.1404 158.531 51.9996 158.466C51.8587 158.4 51.7468 158.305 51.664 158.18C51.5811 158.055 51.5397 157.903 51.5397 157.726C51.5397 157.57 51.5705 157.443 51.632 157.346C51.6936 157.248 51.7758 157.171 51.8788 157.115C51.9818 157.059 52.0954 157.018 52.2197 156.991C52.3452 156.962 52.4713 156.94 52.5979 156.923C52.7636 156.902 52.898 156.886 53.001 156.875C53.1051 156.864 53.1809 156.844 53.2282 156.817C53.2768 156.79 53.301 156.742 53.301 156.675V156.661C53.301 156.485 53.2531 156.349 53.1572 156.252C53.0625 156.155 52.9187 156.107 52.7258 156.107C52.5257 156.107 52.3689 156.15 52.2552 156.238C52.1416 156.326 52.0617 156.419 52.0155 156.518L51.6178 156.376C51.6888 156.211 51.7835 156.082 51.9019 155.989C52.0215 155.896 52.1517 155.831 52.2925 155.794C52.4346 155.756 52.5742 155.737 52.7116 155.737C52.7992 155.737 52.8998 155.748 53.0134 155.769C53.1282 155.789 53.2389 155.831 53.3454 155.895C53.4532 155.959 53.5425 156.056 53.6135 156.185C53.6846 156.314 53.7201 156.487 53.7201 156.703V158.5H53.301V158.131H53.2797C53.2513 158.19 53.204 158.253 53.1377 158.321C53.0714 158.388 52.9832 158.446 52.8731 158.493C52.7631 158.54 52.6287 158.564 52.4701 158.564ZM52.534 158.188C52.6997 158.188 52.8394 158.155 52.953 158.09C53.0679 158.025 53.1543 157.941 53.2123 157.838C53.2715 157.735 53.301 157.626 53.301 157.513V157.129C53.2833 157.151 53.2442 157.17 53.1839 157.188C53.1247 157.204 53.056 157.219 52.9779 157.232C52.901 157.244 52.8258 157.255 52.7524 157.264C52.6802 157.272 52.6216 157.28 52.5766 157.286C52.4677 157.3 52.3659 157.323 52.2712 157.355C52.1777 157.386 52.1019 157.432 52.0439 157.495C51.9871 157.557 51.9587 157.641 51.9587 157.747C51.9587 157.893 52.0126 158.003 52.1203 158.077C52.2292 158.151 52.3671 158.188 52.534 158.188ZM54.9039 156.859V158.5H54.4849V155.773H54.8897V156.199H54.9252C54.9892 156.06 55.0862 155.949 55.2164 155.865C55.3467 155.78 55.5147 155.737 55.7207 155.737C55.9054 155.737 56.0669 155.775 56.2054 155.851C56.3439 155.925 56.4516 156.039 56.5286 156.192C56.6055 156.343 56.644 156.535 56.644 156.767V158.5H56.225V156.795C56.225 156.581 56.1693 156.414 56.0581 156.295C55.9468 156.174 55.7941 156.114 55.6 156.114C55.4662 156.114 55.3467 156.143 55.2413 156.201C55.1371 156.259 55.0549 156.343 54.9945 156.455C54.9341 156.566 54.9039 156.701 54.9039 156.859Z" fill="#4F4F4F"/>
<path d="M80.7281 158.5V154.864H82.9085V155.254H81.1685V156.483H82.7452V156.874H81.1685V158.5H80.7281ZM84.5491 158.557C84.2864 158.557 84.0597 158.499 83.8691 158.383C83.6797 158.266 83.5335 158.102 83.4305 157.893C83.3287 157.682 83.2778 157.437 83.2778 157.158C83.2778 156.878 83.3287 156.632 83.4305 156.419C83.5335 156.205 83.6768 156.038 83.8602 155.918C84.0449 155.798 84.2603 155.737 84.5065 155.737C84.6486 155.737 84.7888 155.761 84.9273 155.808C85.0658 155.856 85.1919 155.933 85.3055 156.039C85.4192 156.144 85.5097 156.284 85.5772 156.458C85.6447 156.632 85.6784 156.846 85.6784 157.101V157.278H83.5761V156.916H85.2523C85.2523 156.762 85.2215 156.625 85.1599 156.504C85.0996 156.384 85.0132 156.288 84.9007 156.218C84.7894 156.149 84.658 156.114 84.5065 156.114C84.3396 156.114 84.1952 156.155 84.0733 156.238C83.9526 156.32 83.8596 156.426 83.7945 156.558C83.7294 156.689 83.6969 156.83 83.6969 156.98V157.222C83.6969 157.428 83.7324 157.602 83.8034 157.745C83.8756 157.887 83.9756 157.996 84.1035 158.07C84.2313 158.144 84.3799 158.18 84.5491 158.18C84.6592 158.18 84.7587 158.165 84.8474 158.134C84.9374 158.102 85.0149 158.055 85.08 157.992C85.1451 157.928 85.1955 157.849 85.231 157.754L85.6358 157.868C85.5932 158.005 85.5216 158.126 85.421 158.23C85.3203 158.333 85.196 158.414 85.0481 158.472C84.9001 158.528 84.7338 158.557 84.5491 158.557ZM86.3727 158.5V154.864H86.7917V156.206H86.8272C86.858 156.159 86.9006 156.098 86.955 156.025C87.0107 155.95 87.09 155.884 87.193 155.826C87.2971 155.767 87.438 155.737 87.6156 155.737C87.8452 155.737 88.0476 155.795 88.2228 155.909C88.398 156.024 88.5347 156.187 88.633 156.398C88.7312 156.608 88.7803 156.857 88.7803 157.143C88.7803 157.432 88.7312 157.683 88.633 157.895C88.5347 158.105 88.3986 158.269 88.2246 158.385C88.0506 158.499 87.8499 158.557 87.6227 158.557C87.4475 158.557 87.3072 158.528 87.2018 158.47C87.0965 158.411 87.0154 158.344 86.9586 158.269C86.9018 158.193 86.858 158.131 86.8272 158.081H86.7775V158.5H86.3727ZM86.7846 157.136C86.7846 157.342 86.8148 157.524 86.8751 157.681C86.9355 157.838 87.0237 157.96 87.1397 158.049C87.2557 158.137 87.3978 158.18 87.5658 158.18C87.741 158.18 87.8872 158.134 88.0044 158.042C88.1228 157.948 88.2116 157.823 88.2707 157.665C88.3311 157.507 88.3613 157.33 88.3613 157.136C88.3613 156.945 88.3317 156.772 88.2725 156.618C88.2145 156.463 88.1263 156.34 88.008 156.25C87.8908 156.159 87.7434 156.114 87.5658 156.114C87.3954 156.114 87.2522 156.157 87.1362 156.243C87.0201 156.328 86.9326 156.448 86.8734 156.602C86.8142 156.755 86.7846 156.933 86.7846 157.136Z" fill="#4F4F4F"/>
<path d="M107.78 154.864H108.305L109.541 157.882H109.584L110.819 154.864H111.345V158.5H110.933V155.737H110.898L109.761 158.5H109.363L108.227 155.737H108.192V158.5H107.78V154.864ZM112.974 158.564C112.801 158.564 112.644 158.531 112.503 158.466C112.362 158.4 112.25 158.305 112.168 158.18C112.085 158.055 112.043 157.903 112.043 157.726C112.043 157.57 112.074 157.443 112.136 157.346C112.197 157.248 112.279 157.171 112.382 157.115C112.485 157.059 112.599 157.018 112.723 156.991C112.849 156.962 112.975 156.94 113.101 156.923C113.267 156.902 113.402 156.886 113.505 156.875C113.609 156.864 113.684 156.844 113.732 156.817C113.78 156.79 113.805 156.742 113.805 156.675V156.661C113.805 156.485 113.757 156.349 113.661 156.252C113.566 156.155 113.422 156.107 113.229 156.107C113.029 156.107 112.872 156.15 112.759 156.238C112.645 156.326 112.565 156.419 112.519 156.518L112.121 156.376C112.192 156.211 112.287 156.082 112.405 155.989C112.525 155.896 112.655 155.831 112.796 155.794C112.938 155.756 113.078 155.737 113.215 155.737C113.303 155.737 113.403 155.748 113.517 155.769C113.632 155.789 113.742 155.831 113.849 155.895C113.957 155.959 114.046 156.056 114.117 156.185C114.188 156.314 114.224 156.487 114.224 156.703V158.5H113.805V158.131H113.783C113.755 158.19 113.708 158.253 113.641 158.321C113.575 158.388 113.487 158.446 113.377 158.493C113.267 158.54 113.132 158.564 112.974 158.564ZM113.038 158.188C113.203 158.188 113.343 158.155 113.457 158.09C113.571 158.025 113.658 157.941 113.716 157.838C113.775 157.735 113.805 157.626 113.805 157.513V157.129C113.787 157.151 113.748 157.17 113.687 157.188C113.628 157.204 113.56 157.219 113.481 157.232C113.405 157.244 113.329 157.255 113.256 157.264C113.184 157.272 113.125 157.28 113.08 157.286C112.971 157.3 112.869 157.323 112.775 157.355C112.681 157.386 112.606 157.432 112.548 157.495C112.491 157.557 112.462 157.641 112.462 157.747C112.462 157.893 112.516 158.003 112.624 158.077C112.733 158.151 112.871 158.188 113.038 158.188ZM114.988 158.5V155.773H115.393V156.185H115.422C115.471 156.05 115.561 155.94 115.692 155.856C115.822 155.772 115.969 155.73 116.132 155.73C116.163 155.73 116.201 155.731 116.247 155.732C116.294 155.733 116.328 155.735 116.352 155.737V156.163C116.338 156.16 116.305 156.154 116.254 156.147C116.205 156.139 116.152 156.135 116.096 156.135C115.964 156.135 115.845 156.163 115.741 156.218C115.638 156.273 115.557 156.349 115.496 156.446C115.437 156.542 115.408 156.651 115.408 156.774V158.5H114.988Z" fill="#4F4F4F"/>
<path d="M135.074 158.5H134.613L135.948 154.864H136.402L137.738 158.5H137.276L136.189 155.439H136.161L135.074 158.5ZM135.245 157.08H137.106V157.47H135.245V157.08ZM138.247 159.523V155.773H138.652V156.206H138.702C138.733 156.159 138.775 156.098 138.83 156.025C138.885 155.95 138.965 155.884 139.068 155.826C139.172 155.767 139.313 155.737 139.49 155.737C139.72 155.737 139.922 155.795 140.097 155.909C140.273 156.024 140.409 156.187 140.508 156.398C140.606 156.608 140.655 156.857 140.655 157.143C140.655 157.432 140.606 157.683 140.508 157.895C140.409 158.105 140.273 158.269 140.099 158.385C139.925 158.499 139.725 158.557 139.497 158.557C139.322 158.557 139.182 158.528 139.076 158.47C138.971 158.411 138.89 158.344 138.833 158.269C138.776 158.193 138.733 158.131 138.702 158.081H138.666V159.523H138.247ZM138.659 157.136C138.659 157.342 138.689 157.524 138.75 157.681C138.81 157.838 138.898 157.96 139.014 158.049C139.13 158.137 139.272 158.18 139.44 158.18C139.616 158.18 139.762 158.134 139.879 158.042C139.997 157.948 140.086 157.823 140.145 157.665C140.206 157.507 140.236 157.33 140.236 157.136C140.236 156.945 140.206 156.772 140.147 156.618C140.089 156.463 140.001 156.34 139.883 156.25C139.765 156.159 139.618 156.114 139.44 156.114C139.27 156.114 139.127 156.157 139.011 156.243C138.895 156.328 138.807 156.448 138.748 156.602C138.689 156.755 138.659 156.933 138.659 157.136ZM141.294 158.5V155.773H141.699V156.185H141.727C141.777 156.05 141.867 155.94 141.997 155.856C142.127 155.772 142.274 155.73 142.438 155.73C142.468 155.73 142.507 155.731 142.553 155.732C142.599 155.733 142.634 155.735 142.658 155.737V156.163C142.644 156.16 142.611 156.154 142.56 156.147C142.51 156.139 142.458 156.135 142.402 156.135C142.27 156.135 142.151 156.163 142.047 156.218C141.944 156.273 141.862 156.349 141.802 156.446C141.743 156.542 141.713 156.651 141.713 156.774V158.5H141.294Z" fill="#4F4F4F"/>
<path d="M161.568 154.864H162.093L163.329 157.882H163.372L164.608 154.864H165.133V158.5H164.721V155.737H164.686L163.549 158.5H163.152L162.015 155.737H161.98V158.5H161.568V154.864ZM166.762 158.564C166.589 158.564 166.432 158.531 166.291 158.466C166.15 158.4 166.038 158.305 165.956 158.18C165.873 158.055 165.831 157.903 165.831 157.726C165.831 157.57 165.862 157.443 165.924 157.346C165.985 157.248 166.067 157.171 166.17 157.115C166.273 157.059 166.387 157.018 166.511 156.991C166.637 156.962 166.763 156.94 166.89 156.923C167.055 156.902 167.19 156.886 167.293 156.875C167.397 156.864 167.473 156.844 167.52 156.817C167.568 156.79 167.593 156.742 167.593 156.675V156.661C167.593 156.485 167.545 156.349 167.449 156.252C167.354 156.155 167.21 156.107 167.017 156.107C166.817 156.107 166.661 156.15 166.547 156.238C166.433 156.326 166.353 156.419 166.307 156.518L165.909 156.376C165.98 156.211 166.075 156.082 166.194 155.989C166.313 155.896 166.443 155.831 166.584 155.794C166.726 155.756 166.866 155.737 167.003 155.737C167.091 155.737 167.191 155.748 167.305 155.769C167.42 155.789 167.531 155.831 167.637 155.895C167.745 155.959 167.834 156.056 167.905 156.185C167.976 156.314 168.012 156.487 168.012 156.703V158.5H167.593V158.131H167.571C167.543 158.19 167.496 158.253 167.429 158.321C167.363 158.388 167.275 158.446 167.165 158.493C167.055 158.54 166.92 158.564 166.762 158.564ZM166.826 158.188C166.991 158.188 167.131 158.155 167.245 158.09C167.36 158.025 167.446 157.941 167.504 157.838C167.563 157.735 167.593 157.626 167.593 157.513V157.129C167.575 157.151 167.536 157.17 167.476 157.188C167.416 157.204 167.348 157.219 167.27 157.232C167.193 157.244 167.117 157.255 167.044 157.264C166.972 157.272 166.913 157.28 166.868 157.286C166.759 157.3 166.658 157.323 166.563 157.355C166.469 157.386 166.394 157.432 166.336 157.495C166.279 157.557 166.25 157.641 166.25 157.747C166.25 157.893 166.304 158.003 166.412 158.077C166.521 158.151 166.659 158.188 166.826 158.188ZM168.777 158.5V155.773H169.196V158.5H168.777ZM168.99 155.318C168.908 155.318 168.838 155.29 168.778 155.235C168.72 155.179 168.691 155.112 168.691 155.034C168.691 154.956 168.72 154.889 168.778 154.833C168.838 154.778 168.908 154.75 168.99 154.75C169.071 154.75 169.141 154.778 169.199 154.833C169.258 154.889 169.288 154.956 169.288 155.034C169.288 155.112 169.258 155.179 169.199 155.235C169.141 155.29 169.071 155.318 168.99 155.318Z" fill="#4F4F4F"/>
<path d="M190.667 154.864H191.107V157.463C191.107 157.695 191.065 157.892 190.979 158.054C190.894 158.217 190.774 158.34 190.619 158.424C190.464 158.508 190.281 158.55 190.07 158.55C189.871 158.55 189.694 158.514 189.539 158.441C189.384 158.368 189.262 158.264 189.174 158.129C189.085 157.994 189.04 157.834 189.04 157.648H189.474C189.474 157.751 189.499 157.841 189.55 157.918C189.602 157.993 189.673 158.053 189.763 158.095C189.853 158.138 189.955 158.159 190.07 158.159C190.197 158.159 190.305 158.132 190.393 158.079C190.482 158.026 190.55 157.948 190.596 157.845C190.643 157.741 190.667 157.613 190.667 157.463V154.864ZM193.652 157.385V155.773H194.071V158.5H193.652V158.038H193.623C193.559 158.177 193.46 158.295 193.325 158.392C193.19 158.488 193.02 158.536 192.814 158.536C192.643 158.536 192.492 158.498 192.359 158.424C192.226 158.348 192.122 158.234 192.047 158.083C191.971 157.93 191.933 157.738 191.933 157.506V155.773H192.352V157.477C192.352 157.676 192.408 157.835 192.519 157.953C192.631 158.071 192.774 158.131 192.949 158.131C193.053 158.131 193.159 158.104 193.266 158.051C193.375 157.998 193.466 157.916 193.54 157.806C193.614 157.696 193.652 157.555 193.652 157.385ZM195.257 156.859V158.5H194.838V155.773H195.243V156.199H195.278C195.342 156.06 195.439 155.949 195.57 155.865C195.7 155.78 195.868 155.737 196.074 155.737C196.259 155.737 196.42 155.775 196.559 155.851C196.697 155.925 196.805 156.039 196.882 156.192C196.959 156.343 196.997 156.535 196.997 156.767V158.5H196.578V156.795C196.578 156.581 196.523 156.414 196.411 156.295C196.3 156.174 196.147 156.114 195.953 156.114C195.819 156.114 195.7 156.143 195.595 156.201C195.49 156.259 195.408 156.343 195.348 156.455C195.287 156.566 195.257 156.701 195.257 156.859Z" fill="#4F4F4F"/>
<defs>
<filter id="filter0_d_11_15925" x="0" y="0" width="231" height="211" filterUnits="userSpaceOnUse" color-interpolation-filters="sRGB">
<feFlood flood-opacity="0" result="BackgroundImageFix"/>
<feColorMatrix in="SourceAlpha" type="matrix" values="0 0 0 0 0 0 0 0 0 0 0 0 0 0 0 0 0 0 127 0" result="hardAlpha"/>
<feOffset dy="1"/>
<feGaussianBlur stdDeviation="2.5"/>
<feComposite in2="hardAlpha" operator="out"/>
<feColorMatrix type="matrix" values="0 0 0 0 0 0 0 0 0 0 0 0 0 0 0 0 0 0 0.1 0"/>
<feBlend mode="normal" in2="BackgroundImageFix" result="effect1_dropShadow_11_15925"/>
<feBlend mode="normal" in="SourceGraphic" in2="effect1_dropShadow_11_15925" result="shape"/>
</filter>
</defs>
</svg>
