<svg width="824" height="40" viewBox="0 0 824 40" fill="none" xmlns="http://www.w3.org/2000/svg">
<path d="M2.5 14.1667C2.5 10.083 2.5 8.04109 3.29474 6.48132C3.99382 5.1093 5.1093 3.99382 6.48132 3.29474C8.04109 2.5 10.083 2.5 14.1667 2.5H25.8333C29.917 2.5 31.9589 2.5 33.5187 3.29474C34.8907 3.99382 36.0062 5.1093 36.7053 6.48132C37.5 8.04109 37.5 10.083 37.5 14.1667V25.8333C37.5 29.917 37.5 31.9589 36.7053 33.5187C36.0062 34.8907 34.8907 36.0062 33.5187 36.7053C31.9589 37.5 29.9171 37.5 25.8333 37.5H14.1667C10.083 37.5 8.04109 37.5 6.48132 36.7053C5.1093 36.0062 3.99382 34.8907 3.29474 33.5187C2.5 31.9589 2.5 29.9171 2.5 25.8333V14.1667Z" fill="#16DB65"/>
<path d="M32.3958 17.8125C32.3958 25.1042 26.5625 30.9375 20 30.9375C13.4375 30.9375 7.60413 25.1042 7.60413 17.8125C7.60413 11.3315 14.7924 7.9611 19.2708 13.1997L19.6354 14.1667H20.3645C20.3645 14.1667 20.7006 13.1997 20.7291 13.1997C25.2075 7.9611 32.3958 11.3315 32.3958 17.8125Z" fill="#F79FEE"/>
<path fill-rule="evenodd" clip-rule="evenodd" d="M15.4427 17.7021C15.4427 20.219 17.4831 22.2594 20 22.2594C22.5169 22.2594 24.5573 20.219 24.5573 17.7021H27.1094C27.1094 21.6285 23.9264 24.8115 20 24.8115C16.0736 24.8115 12.8906 21.6285 12.8906 17.7021H15.4427Z" fill="#16DB65"/>
<path d="M57.1064 16.0469V26H55.4043V16.0469H57.1064ZM60.2305 16.0469V17.4141H52.3076V16.0469H60.2305ZM64.0834 26.1367C63.5365 26.1367 63.0421 26.0479 62.6 25.8701C62.1625 25.6878 61.7888 25.4349 61.4789 25.1113C61.1736 24.7878 60.9389 24.4072 60.7748 23.9697C60.6107 23.5322 60.5287 23.0605 60.5287 22.5547V22.2812C60.5287 21.7025 60.613 21.1784 60.7816 20.709C60.9503 20.2396 61.185 19.8385 61.4857 19.5059C61.7865 19.1686 62.142 18.9111 62.5521 18.7334C62.9623 18.5557 63.4066 18.4668 63.8852 18.4668C64.4138 18.4668 64.8764 18.5557 65.2729 18.7334C65.6693 18.9111 65.9975 19.1618 66.2572 19.4854C66.5215 19.8044 66.7175 20.1849 66.8451 20.627C66.9773 21.069 67.0434 21.5566 67.0434 22.0898V22.7939H61.3285V21.6113H65.4164V21.4814C65.4073 21.1852 65.348 20.9072 65.2387 20.6475C65.1339 20.3877 64.9721 20.1781 64.7533 20.0186C64.5346 19.859 64.2429 19.7793 63.8783 19.7793C63.6049 19.7793 63.3611 19.8385 63.1469 19.957C62.9372 20.071 62.7618 20.2373 62.6205 20.4561C62.4792 20.6748 62.3699 20.9391 62.2924 21.249C62.2195 21.5544 62.183 21.8984 62.183 22.2812V22.5547C62.183 22.8783 62.2263 23.179 62.3129 23.457C62.404 23.7305 62.5362 23.9697 62.7094 24.1748C62.8826 24.3799 63.0922 24.5417 63.3383 24.6602C63.5844 24.7741 63.8646 24.8311 64.1791 24.8311C64.5756 24.8311 64.9288 24.7513 65.2387 24.5918C65.5486 24.4323 65.8174 24.2067 66.0453 23.915L66.9135 24.7559C66.754 24.9883 66.5466 25.2116 66.2914 25.4258C66.0362 25.6354 65.724 25.8063 65.3549 25.9385C64.9903 26.0706 64.5665 26.1367 64.0834 26.1367ZM71.45 24.8242C71.7189 24.8242 71.9604 24.7718 72.1746 24.667C72.3934 24.5576 72.5688 24.4072 72.701 24.2158C72.8377 24.0244 72.9129 23.8034 72.9266 23.5527H74.4783C74.4692 24.0312 74.3279 24.4665 74.0545 24.8584C73.7811 25.2503 73.4187 25.5625 72.9676 25.7949C72.5164 26.0228 72.0174 26.1367 71.4705 26.1367C70.9054 26.1367 70.4132 26.041 69.9939 25.8496C69.5747 25.6536 69.226 25.3848 68.948 25.043C68.6701 24.7012 68.4604 24.307 68.3191 23.8604C68.1824 23.4137 68.1141 22.9352 68.1141 22.4248V22.1855C68.1141 21.6751 68.1824 21.1966 68.3191 20.75C68.4604 20.2988 68.6701 19.9023 68.948 19.5605C69.226 19.2188 69.5747 18.9521 69.9939 18.7607C70.4132 18.5648 70.9031 18.4668 71.4637 18.4668C72.0561 18.4668 72.5757 18.5853 73.0223 18.8223C73.4689 19.0547 73.8198 19.3805 74.075 19.7998C74.3348 20.2145 74.4692 20.6976 74.4783 21.249H72.9266C72.9129 20.9756 72.8445 20.7295 72.7215 20.5107C72.603 20.2874 72.4344 20.1097 72.2156 19.9775C72.0014 19.8454 71.7439 19.7793 71.4432 19.7793C71.1105 19.7793 70.8348 19.8477 70.616 19.9844C70.3973 20.1165 70.2264 20.2988 70.1033 20.5312C69.9803 20.7591 69.8914 21.0166 69.8367 21.3037C69.7866 21.5863 69.7615 21.8802 69.7615 22.1855V22.4248C69.7615 22.7301 69.7866 23.0264 69.8367 23.3135C69.8868 23.6006 69.9734 23.8581 70.0965 24.0859C70.2241 24.3092 70.3973 24.4893 70.616 24.626C70.8348 24.7581 71.1128 24.8242 71.45 24.8242ZM77.4699 15.5V26H75.8293V15.5H77.4699ZM77.1828 22.0283L76.6496 22.0215C76.6542 21.5111 76.7248 21.0394 76.8615 20.6064C77.0028 20.1735 77.1988 19.7975 77.4494 19.4785C77.7046 19.1549 78.01 18.9066 78.3654 18.7334C78.7209 18.5557 79.1151 18.4668 79.548 18.4668C79.9126 18.4668 80.2408 18.5169 80.5324 18.6172C80.8286 18.7174 81.0839 18.8792 81.298 19.1025C81.5122 19.3213 81.674 19.6084 81.7834 19.9639C81.8973 20.3148 81.9543 20.7432 81.9543 21.249V26H80.3V21.2354C80.3 20.8799 80.2476 20.5973 80.1428 20.3877C80.0425 20.1781 79.8944 20.0277 79.6984 19.9365C79.5025 19.8408 79.2632 19.793 78.9807 19.793C78.6844 19.793 78.4224 19.8522 78.1945 19.9707C77.9712 20.0892 77.7844 20.251 77.634 20.4561C77.4836 20.6611 77.3697 20.8981 77.2922 21.167C77.2193 21.4359 77.1828 21.723 77.1828 22.0283ZM86.3814 23.7646L88.3639 16.0469H89.4029L89.2867 18.0361L87.1676 26H86.0875L86.3814 23.7646ZM84.898 16.0469L86.5045 23.7031L86.648 26H85.4996L83.1959 16.0469H84.898ZM91.652 23.6826L93.2379 16.0469H94.9469L92.6432 26H91.4947L91.652 23.6826ZM89.8062 16.0469L91.7682 23.7852L92.0553 26H90.9752L88.8902 18.0361L88.7809 16.0469H89.8062ZM97.918 18.6035V26H96.2637V18.6035H97.918ZM96.1543 16.6621C96.1543 16.4115 96.2363 16.2041 96.4004 16.04C96.569 15.8714 96.8014 15.7871 97.0977 15.7871C97.3893 15.7871 97.6195 15.8714 97.7881 16.04C97.9567 16.2041 98.041 16.4115 98.041 16.6621C98.041 16.9082 97.9567 17.1133 97.7881 17.2773C97.6195 17.4414 97.3893 17.5234 97.0977 17.5234C96.8014 17.5234 96.569 17.4414 96.4004 17.2773C96.2363 17.1133 96.1543 16.9082 96.1543 16.6621ZM105.544 24.6875V26H100.035V24.6875H105.544ZM105.394 19.6289L100.595 26H99.5287V24.9404L104.3 18.6035H105.394V19.6289ZM104.758 18.6035V19.916H99.6107V18.6035H104.758ZM115.95 23.4365C115.95 23.2314 115.918 23.0492 115.855 22.8896C115.795 22.7301 115.688 22.5843 115.533 22.4521C115.378 22.32 115.16 22.1924 114.877 22.0693C114.599 21.9417 114.244 21.8118 113.811 21.6797C113.337 21.5339 112.899 21.3721 112.498 21.1943C112.102 21.012 111.755 20.8024 111.459 20.5654C111.163 20.3239 110.933 20.0482 110.769 19.7383C110.605 19.4238 110.523 19.0615 110.523 18.6514C110.523 18.2458 110.607 17.8766 110.776 17.5439C110.949 17.2113 111.193 16.9242 111.507 16.6826C111.826 16.4365 112.202 16.2474 112.635 16.1152C113.068 15.9785 113.546 15.9102 114.071 15.9102C114.809 15.9102 115.445 16.0469 115.978 16.3203C116.515 16.5938 116.928 16.9606 117.215 17.4209C117.507 17.8812 117.653 18.3893 117.653 18.9453H115.95C115.95 18.6172 115.88 18.3278 115.738 18.0771C115.602 17.8219 115.392 17.6214 115.11 17.4756C114.832 17.3298 114.478 17.2568 114.05 17.2568C113.644 17.2568 113.307 17.3184 113.038 17.4414C112.769 17.5645 112.569 17.7308 112.437 17.9404C112.305 18.1501 112.238 18.387 112.238 18.6514C112.238 18.8382 112.282 19.0091 112.368 19.1641C112.455 19.3145 112.587 19.4557 112.765 19.5879C112.943 19.7155 113.166 19.8363 113.435 19.9502C113.704 20.0641 114.02 20.1735 114.385 20.2783C114.936 20.4424 115.417 20.6247 115.827 20.8252C116.237 21.0212 116.579 21.2445 116.853 21.4951C117.126 21.7458 117.331 22.0306 117.468 22.3496C117.605 22.6641 117.673 23.0218 117.673 23.4229C117.673 23.8421 117.589 24.2204 117.42 24.5576C117.251 24.8903 117.01 25.1751 116.696 25.4121C116.386 25.6445 116.012 25.8245 115.574 25.9521C115.141 26.0752 114.658 26.1367 114.125 26.1367C113.647 26.1367 113.175 26.0729 112.71 25.9453C112.25 25.8177 111.831 25.624 111.452 25.3643C111.074 25.0999 110.773 24.7718 110.55 24.3799C110.327 23.9834 110.215 23.5208 110.215 22.9922H111.931C111.931 23.3158 111.986 23.5915 112.095 23.8193C112.209 24.0472 112.366 24.234 112.567 24.3799C112.767 24.5212 113 24.626 113.264 24.6943C113.533 24.7627 113.82 24.7969 114.125 24.7969C114.526 24.7969 114.861 24.7399 115.13 24.626C115.404 24.512 115.609 24.3525 115.745 24.1475C115.882 23.9424 115.95 23.7054 115.95 23.4365ZM118.812 22.3838V22.2266C118.812 21.6934 118.89 21.1989 119.045 20.7432C119.199 20.2829 119.423 19.8841 119.714 19.5469C120.011 19.2051 120.371 18.9408 120.795 18.7539C121.223 18.5625 121.706 18.4668 122.244 18.4668C122.786 18.4668 123.269 18.5625 123.693 18.7539C124.121 18.9408 124.484 19.2051 124.78 19.5469C125.076 19.8841 125.302 20.2829 125.457 20.7432C125.612 21.1989 125.689 21.6934 125.689 22.2266V22.3838C125.689 22.917 125.612 23.4115 125.457 23.8672C125.302 24.3229 125.076 24.7217 124.78 25.0635C124.484 25.4007 124.124 25.665 123.7 25.8564C123.276 26.0433 122.795 26.1367 122.257 26.1367C121.715 26.1367 121.23 26.0433 120.801 25.8564C120.378 25.665 120.018 25.4007 119.721 25.0635C119.425 24.7217 119.199 24.3229 119.045 23.8672C118.89 23.4115 118.812 22.917 118.812 22.3838ZM120.46 22.2266V22.3838C120.46 22.7165 120.494 23.0309 120.562 23.3271C120.63 23.6234 120.738 23.8831 120.883 24.1064C121.029 24.3298 121.216 24.5052 121.444 24.6328C121.672 24.7604 121.943 24.8242 122.257 24.8242C122.563 24.8242 122.827 24.7604 123.05 24.6328C123.278 24.5052 123.465 24.3298 123.611 24.1064C123.757 23.8831 123.864 23.6234 123.932 23.3271C124.005 23.0309 124.042 22.7165 124.042 22.3838V22.2266C124.042 21.8984 124.005 21.5885 123.932 21.2969C123.864 21.0007 123.754 20.7386 123.604 20.5107C123.458 20.2829 123.271 20.1051 123.044 19.9775C122.82 19.8454 122.554 19.7793 122.244 19.7793C121.934 19.7793 121.665 19.8454 121.437 19.9775C121.214 20.1051 121.029 20.2829 120.883 20.5107C120.738 20.7386 120.63 21.0007 120.562 21.2969C120.494 21.5885 120.46 21.8984 120.46 22.2266ZM128.934 15.5V26H127.279V15.5H128.934ZM135.288 24.2568V18.6035H136.943V26H135.384L135.288 24.2568ZM135.521 22.7188L136.075 22.7051C136.075 23.2018 136.02 23.6598 135.911 24.0791C135.801 24.4938 135.633 24.8561 135.405 25.166C135.177 25.4714 134.885 25.7106 134.53 25.8838C134.174 26.0524 133.748 26.1367 133.251 26.1367C132.891 26.1367 132.561 26.0843 132.26 25.9795C131.959 25.8747 131.7 25.7129 131.481 25.4941C131.267 25.2754 131.1 24.9906 130.982 24.6396C130.863 24.2887 130.804 23.8695 130.804 23.3818V18.6035H132.452V23.3955C132.452 23.6644 132.483 23.89 132.547 24.0723C132.611 24.25 132.698 24.3936 132.807 24.5029C132.916 24.6123 133.044 24.6898 133.19 24.7354C133.336 24.7809 133.491 24.8037 133.655 24.8037C134.124 24.8037 134.493 24.7126 134.762 24.5303C135.036 24.3434 135.229 24.0928 135.343 23.7783C135.462 23.4639 135.521 23.1107 135.521 22.7188ZM142.122 18.6035V19.8066H137.952V18.6035H142.122ZM139.155 16.792H140.803V23.9561C140.803 24.1839 140.834 24.3594 140.898 24.4824C140.967 24.6009 141.06 24.6807 141.179 24.7217C141.297 24.7627 141.436 24.7832 141.596 24.7832C141.709 24.7832 141.819 24.7764 141.924 24.7627C142.028 24.749 142.113 24.7354 142.177 24.7217L142.183 25.9795C142.047 26.0205 141.887 26.057 141.705 26.0889C141.527 26.1208 141.322 26.1367 141.09 26.1367C140.711 26.1367 140.376 26.0706 140.085 25.9385C139.793 25.8018 139.565 25.5807 139.401 25.2754C139.237 24.9701 139.155 24.5645 139.155 24.0586V16.792ZM145.257 18.6035V26H143.603V18.6035H145.257ZM143.493 16.6621C143.493 16.4115 143.575 16.2041 143.739 16.04C143.908 15.8714 144.14 15.7871 144.437 15.7871C144.728 15.7871 144.959 15.8714 145.127 16.04C145.296 16.2041 145.38 16.4115 145.38 16.6621C145.38 16.9082 145.296 17.1133 145.127 17.2773C144.959 17.4414 144.728 17.5234 144.437 17.5234C144.14 17.5234 143.908 17.4414 143.739 17.2773C143.575 17.1133 143.493 16.9082 143.493 16.6621ZM146.847 22.3838V22.2266C146.847 21.6934 146.925 21.1989 147.08 20.7432C147.235 20.2829 147.458 19.8841 147.75 19.5469C148.046 19.2051 148.406 18.9408 148.83 18.7539C149.258 18.5625 149.741 18.4668 150.279 18.4668C150.821 18.4668 151.304 18.5625 151.728 18.7539C152.157 18.9408 152.519 19.2051 152.815 19.5469C153.111 19.8841 153.337 20.2829 153.492 20.7432C153.647 21.1989 153.724 21.6934 153.724 22.2266V22.3838C153.724 22.917 153.647 23.4115 153.492 23.8672C153.337 24.3229 153.111 24.7217 152.815 25.0635C152.519 25.4007 152.159 25.665 151.735 25.8564C151.311 26.0433 150.83 26.1367 150.293 26.1367C149.75 26.1367 149.265 26.0433 148.837 25.8564C148.413 25.665 148.053 25.4007 147.756 25.0635C147.46 24.7217 147.235 24.3229 147.08 23.8672C146.925 23.4115 146.847 22.917 146.847 22.3838ZM148.495 22.2266V22.3838C148.495 22.7165 148.529 23.0309 148.597 23.3271C148.666 23.6234 148.773 23.8831 148.919 24.1064C149.064 24.3298 149.251 24.5052 149.479 24.6328C149.707 24.7604 149.978 24.8242 150.293 24.8242C150.598 24.8242 150.862 24.7604 151.086 24.6328C151.313 24.5052 151.5 24.3298 151.646 24.1064C151.792 23.8831 151.899 23.6234 151.967 23.3271C152.04 23.0309 152.077 22.7165 152.077 22.3838V22.2266C152.077 21.8984 152.04 21.5885 151.967 21.2969C151.899 21.0007 151.79 20.7386 151.639 20.5107C151.493 20.2829 151.307 20.1051 151.079 19.9775C150.855 19.8454 150.589 19.7793 150.279 19.7793C149.969 19.7793 149.7 19.8454 149.472 19.9775C149.249 20.1051 149.064 20.2829 148.919 20.5107C148.773 20.7386 148.666 21.0007 148.597 21.2969C148.529 21.5885 148.495 21.8984 148.495 22.2266ZM156.839 20.1826V26H155.191V18.6035H156.743L156.839 20.1826ZM156.545 22.0283L156.012 22.0215C156.016 21.4974 156.089 21.0166 156.23 20.5791C156.376 20.1416 156.577 19.7656 156.832 19.4512C157.092 19.1367 157.402 18.8952 157.762 18.7266C158.122 18.5534 158.523 18.4668 158.965 18.4668C159.32 18.4668 159.642 18.5169 159.929 18.6172C160.22 18.7129 160.469 18.8701 160.674 19.0889C160.883 19.3076 161.043 19.5924 161.152 19.9434C161.262 20.2897 161.316 20.7158 161.316 21.2217V26H159.662V21.2148C159.662 20.8594 159.61 20.5791 159.505 20.374C159.405 20.1644 159.257 20.0163 159.061 19.9297C158.869 19.8385 158.63 19.793 158.343 19.793C158.06 19.793 157.807 19.8522 157.584 19.9707C157.361 20.0892 157.172 20.251 157.017 20.4561C156.866 20.6611 156.75 20.8981 156.668 21.167C156.586 21.4359 156.545 21.723 156.545 22.0283Z" fill="#1C1A25"/>
<path d="M217.709 15.0469H219.24L222.118 22.7236L224.989 15.0469H226.521L222.72 25H221.503L217.709 15.0469ZM217.012 15.0469H218.468L218.721 21.6914V25H217.012V15.0469ZM225.762 15.0469H227.225V25H225.509V21.6914L225.762 15.0469ZM233.368 23.5166V19.9893C233.368 19.7249 233.32 19.4971 233.224 19.3057C233.128 19.1143 232.982 18.9661 232.787 18.8613C232.595 18.7565 232.354 18.7041 232.062 18.7041C231.793 18.7041 231.561 18.7497 231.365 18.8408C231.169 18.932 231.016 19.055 230.907 19.21C230.797 19.3649 230.743 19.5404 230.743 19.7363H229.102C229.102 19.4447 229.173 19.1621 229.314 18.8887C229.455 18.6152 229.66 18.3714 229.929 18.1572C230.198 17.943 230.519 17.7744 230.893 17.6514C231.267 17.5283 231.686 17.4668 232.151 17.4668C232.707 17.4668 233.199 17.5602 233.627 17.7471C234.06 17.9339 234.4 18.2165 234.646 18.5947C234.897 18.9684 235.022 19.4378 235.022 20.0029V23.291C235.022 23.6283 235.045 23.9313 235.09 24.2002C235.14 24.4645 235.211 24.6947 235.302 24.8906V25H233.614C233.536 24.8223 233.475 24.5967 233.429 24.3232C233.388 24.0452 233.368 23.7764 233.368 23.5166ZM233.607 20.502L233.621 21.5205H232.438C232.133 21.5205 231.864 21.5501 231.631 21.6094C231.399 21.6641 231.205 21.7461 231.05 21.8555C230.895 21.9648 230.779 22.097 230.702 22.252C230.624 22.4069 230.585 22.5824 230.585 22.7783C230.585 22.9743 230.631 23.1543 230.722 23.3184C230.813 23.4779 230.945 23.6032 231.119 23.6943C231.296 23.7855 231.51 23.8311 231.761 23.8311C232.098 23.8311 232.392 23.7627 232.643 23.626C232.898 23.4847 233.099 23.3138 233.245 23.1133C233.39 22.9082 233.468 22.7145 233.477 22.5322L234.01 23.2637C233.955 23.4505 233.862 23.651 233.73 23.8652C233.598 24.0794 233.425 24.2845 233.21 24.4805C233.001 24.6719 232.748 24.8291 232.452 24.9521C232.16 25.0752 231.823 25.1367 231.44 25.1367C230.957 25.1367 230.526 25.041 230.148 24.8496C229.77 24.6536 229.473 24.3916 229.259 24.0635C229.045 23.7308 228.938 23.3548 228.938 22.9355C228.938 22.5436 229.011 22.1973 229.157 21.8965C229.307 21.5911 229.526 21.3359 229.813 21.1309C230.105 20.9258 230.46 20.7708 230.879 20.666C231.299 20.5566 231.777 20.502 232.315 20.502H233.607ZM238.478 19.1826V25H236.831V17.6035H238.383L238.478 19.1826ZM238.184 21.0283L237.651 21.0215C237.656 20.4974 237.729 20.0166 237.87 19.5791C238.016 19.1416 238.216 18.7656 238.471 18.4512C238.731 18.1367 239.041 17.8952 239.401 17.7266C239.761 17.5534 240.162 17.4668 240.604 17.4668C240.96 17.4668 241.281 17.5169 241.568 17.6172C241.86 17.7129 242.108 17.8701 242.313 18.0889C242.523 18.3076 242.682 18.5924 242.792 18.9434C242.901 19.2897 242.956 19.7158 242.956 20.2217V25H241.302V20.2148C241.302 19.8594 241.249 19.5791 241.144 19.374C241.044 19.1644 240.896 19.0163 240.7 18.9297C240.509 18.8385 240.269 18.793 239.982 18.793C239.7 18.793 239.447 18.8522 239.223 18.9707C239 19.0892 238.811 19.251 238.656 19.4561C238.506 19.6611 238.389 19.8981 238.307 20.167C238.225 20.4359 238.184 20.723 238.184 21.0283ZM249.188 23.2568V17.6035H250.842V25H249.283L249.188 23.2568ZM249.42 21.7188L249.974 21.7051C249.974 22.2018 249.919 22.6598 249.81 23.0791C249.7 23.4938 249.532 23.8561 249.304 24.166C249.076 24.4714 248.784 24.7106 248.429 24.8838C248.073 25.0524 247.647 25.1367 247.151 25.1367C246.791 25.1367 246.46 25.0843 246.159 24.9795C245.859 24.8747 245.599 24.7129 245.38 24.4941C245.166 24.2754 245 23.9906 244.881 23.6396C244.763 23.2887 244.703 22.8695 244.703 22.3818V17.6035H246.351V22.3955C246.351 22.6644 246.383 22.89 246.446 23.0723C246.51 23.25 246.597 23.3936 246.706 23.5029C246.816 23.6123 246.943 23.6898 247.089 23.7354C247.235 23.7809 247.39 23.8037 247.554 23.8037C248.023 23.8037 248.392 23.7126 248.661 23.5303C248.935 23.3434 249.128 23.0928 249.242 22.7783C249.361 22.4639 249.42 22.1107 249.42 21.7188ZM254.859 25H253.212V16.8926C253.212 16.3411 253.314 15.8786 253.519 15.5049C253.729 15.1266 254.027 14.8418 254.415 14.6504C254.802 14.4544 255.26 14.3564 255.789 14.3564C255.953 14.3564 256.115 14.3678 256.274 14.3906C256.434 14.4089 256.588 14.4385 256.739 14.4795L256.698 15.751C256.607 15.7282 256.506 15.7122 256.397 15.7031C256.292 15.694 256.178 15.6895 256.055 15.6895C255.805 15.6895 255.588 15.7373 255.406 15.833C255.228 15.9242 255.091 16.0586 254.996 16.2363C254.905 16.4141 254.859 16.6328 254.859 16.8926V25ZM256.383 17.6035V18.8066H252.077V17.6035H256.383ZM261.85 23.5166V19.9893C261.85 19.7249 261.802 19.4971 261.706 19.3057C261.61 19.1143 261.465 18.9661 261.269 18.8613C261.077 18.7565 260.836 18.7041 260.544 18.7041C260.275 18.7041 260.043 18.7497 259.847 18.8408C259.651 18.932 259.498 19.055 259.389 19.21C259.279 19.3649 259.225 19.5404 259.225 19.7363H257.584C257.584 19.4447 257.655 19.1621 257.796 18.8887C257.937 18.6152 258.142 18.3714 258.411 18.1572C258.68 17.943 259.001 17.7744 259.375 17.6514C259.749 17.5283 260.168 17.4668 260.633 17.4668C261.189 17.4668 261.681 17.5602 262.109 17.7471C262.542 17.9339 262.882 18.2165 263.128 18.5947C263.379 18.9684 263.504 19.4378 263.504 20.0029V23.291C263.504 23.6283 263.527 23.9313 263.572 24.2002C263.622 24.4645 263.693 24.6947 263.784 24.8906V25H262.096C262.018 24.8223 261.957 24.5967 261.911 24.3232C261.87 24.0452 261.85 23.7764 261.85 23.5166ZM262.089 20.502L262.103 21.5205H260.92C260.615 21.5205 260.346 21.5501 260.113 21.6094C259.881 21.6641 259.687 21.7461 259.532 21.8555C259.377 21.9648 259.261 22.097 259.184 22.252C259.106 22.4069 259.067 22.5824 259.067 22.7783C259.067 22.9743 259.113 23.1543 259.204 23.3184C259.295 23.4779 259.427 23.6032 259.601 23.6943C259.778 23.7855 259.993 23.8311 260.243 23.8311C260.58 23.8311 260.874 23.7627 261.125 23.626C261.38 23.4847 261.581 23.3138 261.727 23.1133C261.872 22.9082 261.95 22.7145 261.959 22.5322L262.492 23.2637C262.438 23.4505 262.344 23.651 262.212 23.8652C262.08 24.0794 261.907 24.2845 261.692 24.4805C261.483 24.6719 261.23 24.8291 260.934 24.9521C260.642 25.0752 260.305 25.1367 259.922 25.1367C259.439 25.1367 259.008 25.041 258.63 24.8496C258.252 24.6536 257.955 24.3916 257.741 24.0635C257.527 23.7308 257.42 23.3548 257.42 22.9355C257.42 22.5436 257.493 22.1973 257.639 21.8965C257.789 21.5911 258.008 21.3359 258.295 21.1309C258.587 20.9258 258.942 20.7708 259.361 20.666C259.781 20.5566 260.259 20.502 260.797 20.502H262.089ZM268.348 23.8242C268.617 23.8242 268.858 23.7718 269.073 23.667C269.291 23.5576 269.467 23.4072 269.599 23.2158C269.736 23.0244 269.811 22.8034 269.825 22.5527H271.376C271.367 23.0312 271.226 23.4665 270.953 23.8584C270.679 24.2503 270.317 24.5625 269.866 24.7949C269.414 25.0228 268.915 25.1367 268.369 25.1367C267.803 25.1367 267.311 25.041 266.892 24.8496C266.473 24.6536 266.124 24.3848 265.846 24.043C265.568 23.7012 265.358 23.307 265.217 22.8604C265.08 22.4137 265.012 21.9352 265.012 21.4248V21.1855C265.012 20.6751 265.08 20.1966 265.217 19.75C265.358 19.2988 265.568 18.9023 265.846 18.5605C266.124 18.2188 266.473 17.9521 266.892 17.7607C267.311 17.5648 267.801 17.4668 268.362 17.4668C268.954 17.4668 269.474 17.5853 269.92 17.8223C270.367 18.0547 270.718 18.3805 270.973 18.7998C271.233 19.2145 271.367 19.6976 271.376 20.249H269.825C269.811 19.9756 269.743 19.7295 269.62 19.5107C269.501 19.2874 269.332 19.1097 269.114 18.9775C268.899 18.8454 268.642 18.7793 268.341 18.7793C268.009 18.7793 267.733 18.8477 267.514 18.9844C267.295 19.1165 267.124 19.2988 267.001 19.5312C266.878 19.7591 266.789 20.0166 266.735 20.3037C266.685 20.5863 266.66 20.8802 266.66 21.1855V21.4248C266.66 21.7301 266.685 22.0264 266.735 22.3135C266.785 22.6006 266.871 22.8581 266.995 23.0859C267.122 23.3092 267.295 23.4893 267.514 23.626C267.733 23.7581 268.011 23.8242 268.348 23.8242ZM276.132 17.6035V18.8066H271.962V17.6035H276.132ZM273.165 15.792H274.812V22.9561C274.812 23.1839 274.844 23.3594 274.908 23.4824C274.976 23.6009 275.07 23.6807 275.188 23.7217C275.307 23.7627 275.446 23.7832 275.605 23.7832C275.719 23.7832 275.829 23.7764 275.933 23.7627C276.038 23.749 276.123 23.7354 276.186 23.7217L276.193 24.9795C276.056 25.0205 275.897 25.057 275.715 25.0889C275.537 25.1208 275.332 25.1367 275.099 25.1367C274.721 25.1367 274.386 25.0706 274.095 24.9385C273.803 24.8018 273.575 24.5807 273.411 24.2754C273.247 23.9701 273.165 23.5645 273.165 23.0586V15.792ZM281.953 23.2568V17.6035H283.608V25H282.049L281.953 23.2568ZM282.186 21.7188L282.739 21.7051C282.739 22.2018 282.685 22.6598 282.575 23.0791C282.466 23.4938 282.297 23.8561 282.07 24.166C281.842 24.4714 281.55 24.7106 281.195 24.8838C280.839 25.0524 280.413 25.1367 279.916 25.1367C279.556 25.1367 279.226 25.0843 278.925 24.9795C278.624 24.8747 278.364 24.7129 278.146 24.4941C277.932 24.2754 277.765 23.9906 277.647 23.6396C277.528 23.2887 277.469 22.8695 277.469 22.3818V17.6035H279.116V22.3955C279.116 22.6644 279.148 22.89 279.212 23.0723C279.276 23.25 279.362 23.3936 279.472 23.5029C279.581 23.6123 279.709 23.6898 279.855 23.7354C280.001 23.7809 280.155 23.8037 280.32 23.8037C280.789 23.8037 281.158 23.7126 281.427 23.5303C281.7 23.3434 281.894 23.0928 282.008 22.7783C282.126 22.4639 282.186 22.1107 282.186 21.7188ZM287.05 19.0117V25H285.403V17.6035H286.975L287.05 19.0117ZM289.313 17.5557L289.299 19.0869C289.199 19.0687 289.09 19.055 288.971 19.0459C288.857 19.0368 288.743 19.0322 288.629 19.0322C288.347 19.0322 288.099 19.0732 287.884 19.1553C287.67 19.2327 287.49 19.3467 287.344 19.4971C287.203 19.6429 287.094 19.8206 287.016 20.0303C286.939 20.2399 286.893 20.4746 286.879 20.7344L286.504 20.7617C286.504 20.2969 286.549 19.8662 286.64 19.4697C286.731 19.0732 286.868 18.7246 287.05 18.4238C287.237 18.123 287.47 17.8883 287.748 17.7197C288.03 17.5511 288.356 17.4668 288.725 17.4668C288.825 17.4668 288.933 17.4759 289.046 17.4941C289.165 17.5124 289.254 17.5329 289.313 17.5557ZM292.209 17.6035V25H290.555V17.6035H292.209ZM290.445 15.6621C290.445 15.4115 290.527 15.2041 290.691 15.04C290.86 14.8714 291.092 14.7871 291.389 14.7871C291.68 14.7871 291.91 14.8714 292.079 15.04C292.248 15.2041 292.332 15.4115 292.332 15.6621C292.332 15.9082 292.248 16.1133 292.079 16.2773C291.91 16.4414 291.68 16.5234 291.389 16.5234C291.092 16.5234 290.86 16.4414 290.691 16.2773C290.527 16.1133 290.445 15.9082 290.445 15.6621ZM295.747 19.1826V25H294.1V17.6035H295.652L295.747 19.1826ZM295.454 21.0283L294.92 21.0215C294.925 20.4974 294.998 20.0166 295.139 19.5791C295.285 19.1416 295.485 18.7656 295.741 18.4512C296 18.1367 296.31 17.8952 296.67 17.7266C297.03 17.5534 297.431 17.4668 297.873 17.4668C298.229 17.4668 298.55 17.5169 298.837 17.6172C299.129 17.7129 299.377 17.8701 299.582 18.0889C299.792 18.3076 299.952 18.5924 300.061 18.9434C300.17 19.2897 300.225 19.7158 300.225 20.2217V25H298.571V20.2148C298.571 19.8594 298.518 19.5791 298.413 19.374C298.313 19.1644 298.165 19.0163 297.969 18.9297C297.778 18.8385 297.538 18.793 297.251 18.793C296.969 18.793 296.716 18.8522 296.493 18.9707C296.269 19.0892 296.08 19.251 295.925 19.4561C295.775 19.6611 295.659 19.8981 295.577 20.167C295.495 20.4359 295.454 20.723 295.454 21.0283ZM306.744 17.6035H308.241V24.7949C308.241 25.4603 308.1 26.0254 307.817 26.4902C307.535 26.9551 307.14 27.3083 306.635 27.5498C306.129 27.7959 305.543 27.9189 304.878 27.9189C304.595 27.9189 304.281 27.8779 303.934 27.7959C303.593 27.7139 303.26 27.5817 302.936 27.3994C302.617 27.2217 302.351 26.987 302.137 26.6953L302.909 25.7246C303.173 26.0391 303.465 26.2692 303.784 26.415C304.103 26.5609 304.438 26.6338 304.789 26.6338C305.167 26.6338 305.488 26.5632 305.753 26.4219C306.022 26.2852 306.229 26.0824 306.375 25.8135C306.521 25.5446 306.594 25.2165 306.594 24.8291V19.2783L306.744 17.6035ZM301.72 21.3838V21.2402C301.72 20.6797 301.788 20.1693 301.925 19.709C302.061 19.2441 302.257 18.8454 302.512 18.5127C302.768 18.1755 303.078 17.918 303.442 17.7402C303.807 17.5579 304.219 17.4668 304.679 17.4668C305.158 17.4668 305.566 17.5534 305.903 17.7266C306.245 17.8997 306.53 18.1481 306.758 18.4717C306.985 18.7907 307.163 19.1735 307.291 19.6201C307.423 20.0622 307.521 20.5544 307.585 21.0967V21.5547C307.526 22.0833 307.425 22.5664 307.284 23.0039C307.143 23.4414 306.956 23.8197 306.723 24.1387C306.491 24.4577 306.204 24.7038 305.862 24.877C305.525 25.0501 305.126 25.1367 304.666 25.1367C304.215 25.1367 303.807 25.0433 303.442 24.8564C303.082 24.6696 302.772 24.4076 302.512 24.0703C302.257 23.7331 302.061 23.3366 301.925 22.8809C301.788 22.4206 301.72 21.9215 301.72 21.3838ZM303.367 21.2402V21.3838C303.367 21.721 303.399 22.0355 303.463 22.3271C303.531 22.6188 303.634 22.8763 303.77 23.0996C303.912 23.3184 304.089 23.4915 304.304 23.6191C304.522 23.7422 304.78 23.8037 305.076 23.8037C305.463 23.8037 305.78 23.7217 306.026 23.5576C306.277 23.3936 306.468 23.1725 306.6 22.8945C306.737 22.612 306.833 22.2975 306.887 21.9512V20.7139C306.86 20.445 306.803 20.1943 306.717 19.9619C306.635 19.7295 306.523 19.5267 306.382 19.3535C306.24 19.1758 306.063 19.0391 305.848 18.9434C305.634 18.8431 305.381 18.793 305.09 18.793C304.793 18.793 304.536 18.8568 304.317 18.9844C304.098 19.112 303.918 19.2874 303.777 19.5107C303.64 19.734 303.538 19.9938 303.47 20.29C303.401 20.5863 303.367 20.903 303.367 21.2402Z" fill="#1C1A25"/>
</svg>
