<svg width="40" height="40" viewBox="0 0 40 40" fill="none" xmlns="http://www.w3.org/2000/svg">
<g id="OK">
<path id="bg" fill-rule="evenodd" clip-rule="evenodd" d="M2.5 20C2.5 10.335 10.335 2.5 20 2.5C29.665 2.5 37.5 10.335 37.5 20C37.5 29.665 29.665 37.5 20 37.5C10.335 37.5 2.5 29.665 2.5 20Z" fill="#EE8208"/>
<g id="ok">
<path d="M25.5552 15.1613C25.5552 18.0066 23.058 20.3211 19.9859 20.3211C16.9144 20.3211 14.4165 18.0066 14.4165 15.1613C14.4165 12.3151 16.9144 10 19.9859 10C23.058 10 25.5552 12.3151 25.5552 15.1613ZM22.2919 15.1613C22.2919 13.9829 21.2575 13.0247 19.9859 13.0247C18.7152 13.0247 17.6799 13.9829 17.6799 15.1613C17.6799 16.3388 18.7152 17.2976 19.9859 17.2976C21.2575 17.2976 22.2919 16.3388 22.2919 15.1613Z" fill="white"/>
<path d="M22.2534 24.5336C23.3871 24.2943 24.4805 23.8786 25.4875 23.2925C26.2496 22.8472 26.4792 21.9137 25.999 21.2075C25.5192 20.4997 24.5124 20.2866 23.749 20.7319C21.4677 22.0613 18.5305 22.061 16.2505 20.7319C15.4871 20.2866 14.48 20.4997 14.0012 21.2075C13.521 21.9143 13.7499 22.8472 14.512 23.2925C15.5191 23.878 16.6124 24.2943 17.7461 24.5336L14.6323 27.419C13.9958 28.0095 13.9958 28.9667 14.633 29.5572C14.9519 29.8521 15.3691 29.9997 15.7863 29.9997C16.2042 29.9997 16.6221 29.8521 16.941 29.5572L19.9994 26.7218L23.0605 29.5572C23.697 30.1476 24.7297 30.1476 25.3669 29.5572C26.0047 28.9667 26.0047 28.0088 25.3669 27.419L22.2534 24.5336Z" fill="white"/>
</g>
</g>
</svg>
