<svg width="24" height="23" viewBox="0 0 24 23" fill="none" xmlns="http://www.w3.org/2000/svg">
<g id="qzone">
<path id="star" d="M12.3195 0.187416C12.1796 -0.0624722 11.8204 -0.0624719 11.6805 0.187416L7.96358 6.82336C7.91142 6.91649 7.82133 6.98224 7.71684 7.00346L0.293901 8.51062C0.0146977 8.56731 -0.0959194 8.90746 0.0963926 9.11797L5.22323 14.7299C5.29486 14.8083 5.32904 14.914 5.31691 15.0196L4.44739 22.5905C4.41475 22.8747 4.70493 23.0854 4.96443 22.9658L11.8469 19.796C11.9441 19.7513 12.0559 19.7513 12.1531 19.796L19.0356 22.9658C19.2951 23.0854 19.5852 22.8747 19.5526 22.5905L18.9165 17.0518C18.9165 17.0518 18.8582 16.5443 18.6831 15.0196C18.671 14.914 18.7051 14.8083 18.7768 14.7299L23.9036 9.11797C24.0959 8.90746 23.9853 8.56731 23.7061 8.51062L16.2832 7.00346C16.1787 6.98224 16.0886 6.91649 16.0364 6.82336L12.3195 0.187416Z" fill="#FECE48"/>
<path id="shadow" d="M11.3283 12.6133C10.8398 11.4635 7.23711 10.4013 5.49683 10.014C6.84021 9.10883 11.8372 9.16795 14.1677 9.31065C14.7668 9.37951 16.2854 9.54331 17.5982 10.0494C17.6712 10.0775 17.6981 10.1651 17.6498 10.2267C16.9308 11.1423 14.3729 13.5127 13.1297 14.6315L12.6106 15.2737C14.6359 15.3858 19.1016 15.5428 20.7625 15.2737C20.2129 15.977 19.3784 16.8027 18.9306 17.2002C18.9612 17.4449 18.9917 17.8424 19.0833 18.4846C10.4612 19.2429 6.96233 17.6283 6.26011 16.7415C6.37206 16.6294 7.54243 15.6468 11.3283 12.6133Z" fill="#F6AD46"/>
<path id="z" d="M11.6336 8.30155C9.3406 8.30155 6.72321 9.22748 5.43533 9.81943C5.31858 9.87309 5.35965 10.0372 5.4881 10.0354C10.3874 9.96445 12.6964 10.456 13.2469 10.8193C13.305 10.8576 13.299 10.9349 13.2439 10.9774C11.1009 12.6288 7.23379 15.8155 6.2577 16.6263C6.17603 16.6942 6.2163 16.8245 6.32165 16.8373C12.7003 17.6119 18.4596 16.4054 20.685 15.3616C20.8044 15.3055 20.7496 15.1478 20.6183 15.1612C17.2433 15.5068 13.4827 14.643 11.9784 14.0933C11.891 14.0614 11.8739 13.9484 11.9461 13.8895C13.1916 12.8729 15.7089 10.8211 17.1825 9.62974C17.2469 9.57768 17.2418 9.47812 17.1718 9.4339C16.0482 8.72405 14.769 8.30155 11.6336 8.30155Z" fill="white"/>
</g>
</svg>
