<svg width="32" height="26" viewBox="0 0 32 26" fill="none" xmlns="http://www.w3.org/2000/svg">
<g id="weibo">
<path id="red" d="M14.6882 4.11264C10.5834 2.40048 0 10.7318 0 17.7569C0 21.8696 5.20067 26 13.7959 26C24.3257 26 29.3943 18.8336 27.6453 15.3211C26.5301 13.0814 23.7011 12.8852 23.5226 12.2851C23.4071 11.8968 24.8254 9.56682 23.2906 8.31359C20.6728 6.17615 16.2231 9.2491 15.7234 8.70192C15.4114 8.36034 16.9013 5.03572 14.6882 4.11264Z" fill="#E31C34"/>
<path id="white" d="M22.5352 16.9447C22.8715 20.3829 18.8378 23.5823 13.5256 24.0906C8.21335 24.5989 3.63427 22.2237 3.29792 18.7855C2.96156 15.3473 6.9953 12.148 12.3075 11.6396C17.6197 11.1313 22.1988 13.5065 22.5352 16.9447Z" fill="white"/>
<path id="black" fill-rule="evenodd" clip-rule="evenodd" d="M17.1354 17.1216C17.7856 19.4196 16.0964 21.8959 13.3623 22.6526C10.6282 23.4094 7.8847 22.16 7.23446 19.862C6.58421 17.564 8.27348 15.0877 11.0075 14.3309C13.7416 13.5742 16.4851 14.8236 17.1354 17.1216ZM12.2722 18.6021C12.6337 19.3712 12.1878 20.3343 11.2763 20.7534C10.3648 21.1725 9.33279 20.8889 8.9713 20.1199C8.60982 19.3509 9.05571 18.3877 9.96724 17.9686C10.8788 17.5495 11.9107 17.8331 12.2722 18.6021ZM13.4677 18.2022C13.8229 18.0389 13.9966 17.6636 13.8558 17.364C13.7149 17.0643 13.3128 16.9538 12.9576 17.1171C12.6025 17.2804 12.4287 17.6557 12.5696 17.9553C12.7104 18.255 13.1125 18.3655 13.4677 18.2022Z" fill="black"/>
<g id="orange">
<path d="M21.8381 2.47733C22.3249 2.35816 22.8351 2.29464 23.362 2.29464C26.8512 2.29464 29.6799 5.09218 29.6799 8.54311C29.6799 9.30531 29.5424 10.0332 29.2917 10.7055C29.0699 11.3 29.3775 11.9597 29.9786 12.1789C30.5797 12.3982 31.2467 12.0941 31.4684 11.4996C31.8126 10.5768 32 9.5803 32 8.54311C32 3.82488 28.1326 0 23.362 0C22.6458 0 21.9485 0.0864387 21.2807 0.249893C20.6588 0.402122 20.2794 1.02416 20.4333 1.63925C20.5872 2.25433 21.2162 2.62956 21.8381 2.47733Z" fill="#FD9940"/>
<path d="M22.8632 6.48247C23.0221 6.44506 23.1889 6.42499 23.362 6.42499C24.5448 6.42499 25.5036 7.3733 25.5036 8.54311C25.5036 8.79846 25.4584 9.04082 25.3766 9.26446C25.1584 9.86024 25.4699 10.5181 26.0723 10.7339C26.6747 10.9496 27.3399 10.6416 27.558 10.0458C27.7303 9.57527 27.8237 9.06871 27.8237 8.54311C27.8237 6.10601 25.8261 4.13035 23.362 4.13035C23.0066 4.13035 22.6595 4.17166 22.3259 4.2502C21.7026 4.39693 21.3176 5.01559 21.466 5.63201C21.6143 6.24844 22.2399 6.6292 22.8632 6.48247Z" fill="#FD9940"/>
</g>
</g>
</svg>
