<svg width="40" height="40" viewBox="0 0 40 40" fill="none" xmlns="http://www.w3.org/2000/svg">
<path d="M20 2.5C10.3368 2.5 2.5 10.3368 2.5 20C2.5 29.6632 10.3368 37.5 20 37.5C29.6632 37.5 37.5 29.6632 37.5 20C37.5 10.3368 29.6632 2.5 20 2.5ZM19.9682 4.16886H19.9714C19.9809 4.1701 19.9905 4.1701 20 4.16886C27.2355 4.16886 33.3382 9.02432 35.225 15.6505C33.6024 18.9866 31.3226 21.9606 28.5225 24.3941C27.175 25.5602 25.7018 26.5943 24.0839 27.3245C22.4643 28.0532 20.6857 28.4684 18.9182 28.3682C17.656 28.2927 16.4244 27.9494 15.3052 27.3611C18.3703 25.6797 21.1069 23.4593 23.3839 20.8066C24.9048 19.0311 26.2332 17.0043 26.7486 14.7086C27.0111 13.56 27.0509 12.3541 26.8123 11.1975C26.5794 10.0293 26.0296 8.9478 25.223 8.07136C24.417 7.23084 23.3964 6.62677 22.2718 6.32455C21.1538 6.02691 19.9832 5.9845 18.8466 6.20045C16.5827 6.61568 14.5623 7.92818 12.9523 9.55409C10.1093 12.4177 8.35455 16.4586 8.6775 20.4916C8.83977 22.5073 9.51114 24.4864 10.6693 26.1457C10.8968 26.4718 11.1498 26.7789 11.4123 27.0748C9.8181 27.6261 8.17372 28.0199 6.50273 28.2505C5.03661 25.8543 4.2348 23.1111 4.17968 20.3025C4.12455 17.494 4.81809 14.7214 6.18904 12.2696C7.56 9.81777 9.55896 7.77512 11.9806 6.35146C14.4022 4.92781 17.1591 4.17448 19.9682 4.16886ZM20.0795 7.3825C20.0859 7.38091 20.105 7.38568 20.0986 7.38409C21.1995 7.38409 22.3052 7.71977 23.1786 8.38159C23.9641 8.98913 24.5547 9.8131 24.8777 10.752C25.2021 11.696 25.3065 12.7016 25.1832 13.692C24.9557 15.6695 23.9582 17.4911 22.7443 19.09C20.5902 21.9186 17.7234 24.1857 14.5368 25.7718C14.2345 25.923 13.9227 26.0693 13.6109 26.2077C12.9451 25.617 12.3808 24.921 11.9405 24.1475C11.0018 22.4866 10.6932 20.5139 10.8745 18.608C11.0591 16.7005 11.7114 14.8598 12.5959 13.1511C13.6189 11.172 15.0077 9.30432 16.9423 8.23523C17.9007 7.69249 18.9799 7.39875 20.0811 7.38091L20.0795 7.3825ZM35.7182 18.2166C35.785 18.8005 35.8311 19.3923 35.8311 19.9936C35.8311 28.7389 28.7484 35.828 20.0016 35.828C17.7012 35.8288 15.4284 35.3266 13.3425 34.3565C11.2567 33.3864 9.40817 31.9718 7.92659 30.212C9.65597 29.8064 11.3442 29.2418 12.9698 28.5257C13.7032 29.0761 14.5082 29.5343 15.3673 29.862C17.8968 30.8325 20.7636 30.6893 23.3155 29.8064C25.8657 28.9234 28.1216 27.342 30.0864 25.503C32.339 23.389 34.2402 20.9293 35.7182 18.2166Z" fill="black"/>
</svg>
