<svg width="80" height="13" viewBox="0 0 80 13" fill="none" xmlns="http://www.w3.org/2000/svg">
<path d="M25.7593 10H24.0889L24.0996 8.93115H25.7593C26.2427 8.93115 26.6473 8.82552 26.9731 8.61426C27.3026 8.40299 27.5496 8.10042 27.7144 7.70654C27.8826 7.31266 27.9668 6.84359 27.9668 6.29932V5.875C27.9668 5.45247 27.9185 5.07829 27.8218 4.75244C27.7287 4.4266 27.589 4.15267 27.4028 3.93066C27.2202 3.70866 26.9946 3.54036 26.7261 3.42578C26.4611 3.3112 26.1549 3.25391 25.8076 3.25391H24.0566V2.17969H25.8076C26.3268 2.17969 26.8013 2.26742 27.231 2.44287C27.6606 2.61475 28.0312 2.86361 28.3428 3.18945C28.6579 3.5153 28.8996 3.9056 29.0679 4.36035C29.2362 4.8151 29.3203 5.32357 29.3203 5.88574V6.29932C29.3203 6.86149 29.2362 7.36995 29.0679 7.82471C28.8996 8.27946 28.6579 8.66976 28.3428 8.99561C28.0277 9.31787 27.6517 9.56673 27.2148 9.74219C26.7816 9.91406 26.2964 10 25.7593 10ZM24.8354 2.17969V10H23.4873V2.17969H24.8354ZM32.4307 4.18848V10H31.1309V4.18848H32.4307ZM31.0449 2.66309C31.0449 2.46615 31.1094 2.30322 31.2383 2.17432C31.3708 2.04183 31.5534 1.97559 31.7861 1.97559C32.0153 1.97559 32.1961 2.04183 32.3286 2.17432C32.4611 2.30322 32.5273 2.46615 32.5273 2.66309C32.5273 2.85645 32.4611 3.01758 32.3286 3.14648C32.1961 3.27539 32.0153 3.33984 31.7861 3.33984C31.5534 3.33984 31.3708 3.27539 31.2383 3.14648C31.1094 3.01758 31.0449 2.85645 31.0449 2.66309ZM37.6089 8.42627C37.6089 8.29736 37.5767 8.18099 37.5122 8.07715C37.4478 7.96973 37.3242 7.87305 37.1416 7.78711C36.9626 7.70117 36.6976 7.6224 36.3467 7.55078C36.0387 7.48275 35.7559 7.40218 35.498 7.30908C35.2438 7.2124 35.0254 7.09603 34.8428 6.95996C34.6602 6.82389 34.5187 6.66276 34.4185 6.47656C34.3182 6.29036 34.2681 6.07552 34.2681 5.83203C34.2681 5.5957 34.32 5.37191 34.4238 5.16064C34.5277 4.94938 34.6763 4.76318 34.8696 4.60205C35.063 4.44092 35.2975 4.3138 35.5732 4.2207C35.8525 4.1276 36.1641 4.08105 36.5078 4.08105C36.9948 4.08105 37.4119 4.16341 37.7593 4.32812C38.1102 4.48926 38.3787 4.70947 38.5649 4.98877C38.7511 5.26449 38.8442 5.57601 38.8442 5.92334H37.5498C37.5498 5.76937 37.5104 5.62614 37.4316 5.49365C37.3564 5.35758 37.2419 5.24837 37.0879 5.16602C36.9339 5.08008 36.7406 5.03711 36.5078 5.03711C36.2858 5.03711 36.1014 5.07292 35.9546 5.14453C35.8114 5.21257 35.7039 5.30208 35.6323 5.41309C35.5643 5.52409 35.5303 5.64583 35.5303 5.77832C35.5303 5.875 35.5482 5.96273 35.584 6.0415C35.6234 6.1167 35.6878 6.18652 35.7773 6.25098C35.8669 6.31185 35.9886 6.36914 36.1426 6.42285C36.3001 6.47656 36.4971 6.52848 36.7334 6.57861C37.1774 6.67171 37.5588 6.79167 37.8774 6.93848C38.1997 7.08171 38.4468 7.2679 38.6187 7.49707C38.7905 7.72266 38.8765 8.00911 38.8765 8.35645C38.8765 8.61426 38.821 8.85059 38.71 9.06543C38.6025 9.27669 38.445 9.4611 38.2373 9.61865C38.0296 9.77262 37.7808 9.89258 37.4907 9.97852C37.2043 10.0645 36.882 10.1074 36.5239 10.1074C35.9976 10.1074 35.5518 10.0143 35.1865 9.82812C34.8213 9.63835 34.5438 9.39665 34.354 9.10303C34.1678 8.80583 34.0747 8.49788 34.0747 8.1792H35.3262C35.3405 8.41911 35.4067 8.61068 35.5249 8.75391C35.6466 8.89355 35.797 8.99561 35.9761 9.06006C36.1587 9.12093 36.3467 9.15137 36.54 9.15137C36.7728 9.15137 36.9679 9.12093 37.1255 9.06006C37.283 8.99561 37.403 8.90967 37.4854 8.80225C37.5677 8.69124 37.6089 8.56592 37.6089 8.42627ZM42.8838 9.07617C43.0951 9.07617 43.2848 9.03499 43.4531 8.95264C43.625 8.8667 43.7629 8.74854 43.8667 8.59814C43.9741 8.44775 44.0332 8.27409 44.0439 8.07715H45.2632C45.256 8.45312 45.145 8.79508 44.9302 9.10303C44.7153 9.41097 44.4307 9.65625 44.0762 9.83887C43.7217 10.0179 43.3296 10.1074 42.8999 10.1074C42.4559 10.1074 42.0692 10.0322 41.7397 9.88184C41.4103 9.72786 41.1364 9.5166 40.918 9.24805C40.6995 8.97949 40.5348 8.66976 40.4238 8.31885C40.3164 7.96794 40.2627 7.59196 40.2627 7.19092V7.00293C40.2627 6.60189 40.3164 6.22591 40.4238 5.875C40.5348 5.52051 40.6995 5.20898 40.918 4.94043C41.1364 4.67188 41.4103 4.4624 41.7397 4.31201C42.0692 4.15804 42.4541 4.08105 42.8945 4.08105C43.36 4.08105 43.7682 4.17415 44.1191 4.36035C44.4701 4.54297 44.7458 4.79899 44.9463 5.12842C45.1504 5.45426 45.256 5.83382 45.2632 6.26709H44.0439C44.0332 6.05225 43.9795 5.85889 43.8828 5.68701C43.7897 5.51156 43.6572 5.37191 43.4854 5.26807C43.3171 5.16423 43.1147 5.1123 42.8784 5.1123C42.617 5.1123 42.4004 5.16602 42.2285 5.27344C42.0566 5.37728 41.9224 5.52051 41.8257 5.70312C41.729 5.88216 41.6592 6.08447 41.6162 6.31006C41.5768 6.53206 41.5571 6.76302 41.5571 7.00293V7.19092C41.5571 7.43083 41.5768 7.66357 41.6162 7.88916C41.6556 8.11475 41.7236 8.31706 41.8203 8.49609C41.9206 8.67155 42.0566 8.81299 42.2285 8.92041C42.4004 9.02425 42.6188 9.07617 42.8838 9.07617ZM50.0332 8.83447V6.06299C50.0332 5.85531 49.9956 5.67627 49.9204 5.52588C49.8452 5.37549 49.7306 5.25911 49.5767 5.17676C49.4263 5.0944 49.2365 5.05322 49.0073 5.05322C48.7961 5.05322 48.6134 5.08903 48.4595 5.16064C48.3055 5.23226 48.1855 5.32894 48.0996 5.45068C48.0137 5.57243 47.9707 5.71029 47.9707 5.86426H46.6816C46.6816 5.63509 46.7371 5.41309 46.8481 5.19824C46.9591 4.9834 47.1203 4.79183 47.3315 4.62354C47.5428 4.45524 47.7952 4.32275 48.0889 4.22607C48.3825 4.12939 48.7119 4.08105 49.0771 4.08105C49.514 4.08105 49.9007 4.15446 50.2373 4.30127C50.5775 4.44808 50.8442 4.67008 51.0376 4.96729C51.2345 5.2609 51.333 5.62972 51.333 6.07373V8.65723C51.333 8.9222 51.3509 9.16032 51.3867 9.37158C51.4261 9.57926 51.4816 9.76009 51.5532 9.91406V10H50.2266C50.1657 9.86035 50.1174 9.68311 50.0815 9.46826C50.0493 9.24984 50.0332 9.03857 50.0332 8.83447ZM50.2212 6.46582L50.2319 7.26611H49.3027C49.0628 7.26611 48.8516 7.28939 48.6689 7.33594C48.4863 7.37891 48.3341 7.44336 48.2124 7.5293C48.0907 7.61523 47.9993 7.71908 47.9385 7.84082C47.8776 7.96257 47.8472 8.10042 47.8472 8.25439C47.8472 8.40837 47.883 8.5498 47.9546 8.67871C48.0262 8.80404 48.13 8.90251 48.2661 8.97412C48.4058 9.04574 48.5741 9.08154 48.771 9.08154C49.036 9.08154 49.2669 9.02783 49.4639 8.92041C49.6644 8.80941 49.8219 8.67513 49.9365 8.51758C50.0511 8.35645 50.112 8.20426 50.1191 8.06104L50.5381 8.63574C50.4951 8.78255 50.4217 8.9401 50.3179 9.1084C50.214 9.27669 50.078 9.43783 49.9097 9.5918C49.745 9.74219 49.5462 9.86572 49.3135 9.9624C49.0843 10.0591 48.8193 10.1074 48.5186 10.1074C48.139 10.1074 47.8006 10.0322 47.5034 9.88184C47.2062 9.72786 46.9735 9.52197 46.8052 9.26416C46.6369 9.00277 46.5527 8.70736 46.5527 8.37793C46.5527 8.06999 46.61 7.79785 46.7246 7.56152C46.8428 7.32161 47.0146 7.12109 47.2402 6.95996C47.4694 6.79883 47.7487 6.67708 48.0781 6.59473C48.4076 6.50879 48.7835 6.46582 49.2061 6.46582H50.2212ZM54.4863 5.29492V10H53.1919V4.18848H54.4272L54.4863 5.29492ZM56.2642 4.15088L56.2534 5.354C56.1746 5.33968 56.0887 5.32894 55.9956 5.32178C55.9061 5.31462 55.8166 5.31104 55.7271 5.31104C55.505 5.31104 55.3099 5.34326 55.1416 5.40771C54.9733 5.46859 54.8319 5.55811 54.7173 5.67627C54.6063 5.79085 54.5203 5.9305 54.4595 6.09521C54.3986 6.25993 54.3628 6.44434 54.3521 6.64844L54.0566 6.66992C54.0566 6.30469 54.0924 5.96631 54.1641 5.65479C54.2357 5.34326 54.3431 5.06934 54.4863 4.83301C54.6331 4.59668 54.8158 4.41227 55.0342 4.27979C55.2562 4.1473 55.5122 4.08105 55.8022 4.08105C55.881 4.08105 55.9652 4.08822 56.0547 4.10254C56.1478 4.11686 56.2176 4.13298 56.2642 4.15088ZM61.0127 8.79688V1.75H62.3125V10H61.1362L61.0127 8.79688ZM57.2314 7.15869V7.0459C57.2314 6.60547 57.2834 6.20443 57.3872 5.84277C57.491 5.47754 57.6414 5.16423 57.8384 4.90283C58.0353 4.63786 58.2752 4.43555 58.5581 4.2959C58.841 4.15267 59.1597 4.08105 59.5142 4.08105C59.8651 4.08105 60.173 4.14909 60.438 4.28516C60.703 4.42122 60.9285 4.61637 61.1147 4.87061C61.3009 5.12126 61.4495 5.42204 61.5605 5.77295C61.6715 6.12028 61.7503 6.507 61.7969 6.93311V7.29297C61.7503 7.70833 61.6715 8.08789 61.5605 8.43164C61.4495 8.77539 61.3009 9.07259 61.1147 9.32324C60.9285 9.57389 60.7012 9.76725 60.4326 9.90332C60.1676 10.0394 59.8579 10.1074 59.5034 10.1074C59.1525 10.1074 58.8356 10.034 58.5527 9.88721C58.2734 9.7404 58.0353 9.53451 57.8384 9.26953C57.6414 9.00456 57.491 8.69303 57.3872 8.33496C57.2834 7.97331 57.2314 7.58122 57.2314 7.15869ZM58.5259 7.0459V7.15869C58.5259 7.42367 58.5492 7.67074 58.5957 7.8999C58.6458 8.12907 58.7228 8.33138 58.8267 8.50684C58.9305 8.67871 59.0648 8.81478 59.2295 8.91504C59.3978 9.01172 59.5983 9.06006 59.8311 9.06006C60.1247 9.06006 60.3664 8.99561 60.5562 8.8667C60.7459 8.73779 60.8945 8.56413 61.002 8.3457C61.113 8.1237 61.1882 7.87663 61.2275 7.60449V6.63232C61.2061 6.42106 61.1613 6.22412 61.0933 6.0415C61.0288 5.85889 60.9411 5.69954 60.8301 5.56348C60.7191 5.42383 60.5812 5.31641 60.4165 5.24121C60.2554 5.16243 60.0638 5.12305 59.8418 5.12305C59.6055 5.12305 59.4049 5.17318 59.2402 5.27344C59.0755 5.3737 58.9395 5.51156 58.832 5.68701C58.7282 5.86247 58.6512 6.06657 58.6011 6.29932C58.5509 6.53206 58.5259 6.78092 58.5259 7.0459Z" fill="#FFB319"/>
<circle cx="73.5" cy="6.5" r="6.5" fill="#FFB319"/>
</svg>
