<svg width="26" height="24" viewBox="0 0 26 24" fill="none" xmlns="http://www.w3.org/2000/svg">
<g id="Done_all_alt_round_fill">
<path id="Line 2 (Stroke)" d="M17.5479 7.26648C18.2473 6.41159 18.1213 5.15154 17.2664 4.45208C16.4116 3.75263 15.1515 3.87863 14.4521 4.73352L6.66615 14.2496L4.19997 12.4C3.31631 11.7373 2.06271 11.9163 1.39997 12.8C0.737228 13.6837 0.916315 14.9373 1.79997 15.6L5.03306 18.0248C6.31913 18.9894 8.13694 18.7687 9.15493 17.5245L17.5479 7.26648Z" stroke="#2E7D32" stroke-width="2" stroke-linecap="round"/>
<g id="Subtract">
<mask id="path-2-outside-1_20_483" maskUnits="userSpaceOnUse" x="8.86932" y="2.99997" width="18" height="17" fill="black">
<rect fill="white" x="8.86932" y="2.99997" width="18" height="17"/>
<path fill-rule="evenodd" clip-rule="evenodd" d="M11.8693 16.5761L12.603 17.163C13.4588 17.8477 14.7062 17.716 15.4003 16.8677L23.774 6.63324C24.1237 6.20579 24.0607 5.57577 23.6332 5.22604C23.2058 4.87631 22.5758 4.93932 22.226 5.36676L13.8524 15.6013L13.1359 15.0281L11.8693 16.5761Z"/>
</mask>
<path d="M12.603 17.163L11.3536 18.7247L11.3536 18.7247L12.603 17.163ZM11.8693 16.5761L10.3214 15.3096L9.04094 16.8746L10.6199 18.1378L11.8693 16.5761ZM15.4003 16.8677L13.8524 15.6013L13.8524 15.6013L15.4003 16.8677ZM23.774 6.63324L22.226 5.36676L22.226 5.36676L23.774 6.63324ZM23.6332 5.22604L22.3668 6.77396L22.3668 6.77396L23.6332 5.22604ZM22.226 5.36676L20.6781 4.10029L22.226 5.36676ZM13.8524 15.6013L12.603 17.163L14.1476 18.3987L15.4003 16.8677L13.8524 15.6013ZM13.1359 15.0281L14.3853 13.4663L12.8406 12.2306L11.588 13.7616L13.1359 15.0281ZM13.8524 15.6013L13.1187 15.0143L10.6199 18.1378L11.3536 18.7247L13.8524 15.6013ZM13.8524 15.6013L13.8524 15.6013L11.3536 18.7247C13.0652 20.0941 15.5601 19.8307 16.9482 18.1342L13.8524 15.6013ZM22.226 5.36676L13.8524 15.6013L16.9482 18.1342L25.3219 7.89971L22.226 5.36676ZM22.3668 6.77396C21.9393 6.42423 21.8763 5.79421 22.226 5.36676L25.3219 7.89971C26.3711 6.61738 26.182 4.72731 24.8997 3.67813L22.3668 6.77396ZM23.774 6.63324C23.4242 7.06068 22.7942 7.12368 22.3668 6.77396L24.8997 3.67813C23.6174 2.62894 21.7273 2.81795 20.6781 4.10029L23.774 6.63324ZM15.4003 16.8677L23.774 6.63324L20.6781 4.10029L12.3044 14.3348L15.4003 16.8677ZM11.8865 16.5898L12.603 17.163L15.1017 14.0395L14.3853 13.4663L11.8865 16.5898ZM11.588 13.7616L10.3214 15.3096L13.4172 17.8426L14.6838 16.2946L11.588 13.7616Z" fill="#2E7D32" mask="url(#path-2-outside-1_20_483)"/>
</g>
</g>
</svg>
