<svg width="80" height="13" viewBox="0 0 80 13" fill="none" xmlns="http://www.w3.org/2000/svg">
<path d="M39.1187 10H37.4482L37.459 8.93115H39.1187C39.6021 8.93115 40.0067 8.82552 40.3325 8.61426C40.6619 8.40299 40.909 8.10042 41.0737 7.70654C41.242 7.31266 41.3262 6.84359 41.3262 6.29932V5.875C41.3262 5.45247 41.2778 5.07829 41.1812 4.75244C41.0881 4.4266 40.9484 4.15267 40.7622 3.93066C40.5796 3.70866 40.354 3.54036 40.0854 3.42578C39.8205 3.3112 39.5143 3.25391 39.167 3.25391H37.416V2.17969H39.167C39.6862 2.17969 40.1606 2.26742 40.5903 2.44287C41.02 2.61475 41.3906 2.86361 41.7021 3.18945C42.0173 3.5153 42.259 3.9056 42.4272 4.36035C42.5955 4.8151 42.6797 5.32357 42.6797 5.88574V6.29932C42.6797 6.86149 42.5955 7.36995 42.4272 7.82471C42.259 8.27946 42.0173 8.66976 41.7021 8.99561C41.387 9.31787 41.0111 9.56673 40.5742 9.74219C40.141 9.91406 39.6558 10 39.1187 10ZM38.1948 2.17969V10H36.8467V2.17969H38.1948ZM44.1572 7.15869V7.03516C44.1572 6.61621 44.2181 6.2277 44.3398 5.86963C44.4616 5.50798 44.637 5.19466 44.8662 4.92969C45.099 4.66113 45.3818 4.45345 45.7148 4.30664C46.0514 4.15625 46.431 4.08105 46.8535 4.08105C47.2796 4.08105 47.6592 4.15625 47.9922 4.30664C48.3288 4.45345 48.6134 4.66113 48.8462 4.92969C49.0789 5.19466 49.2562 5.50798 49.3779 5.86963C49.4997 6.2277 49.5605 6.61621 49.5605 7.03516V7.15869C49.5605 7.57764 49.4997 7.96615 49.3779 8.32422C49.2562 8.68229 49.0789 8.99561 48.8462 9.26416C48.6134 9.52913 48.3306 9.73682 47.9976 9.88721C47.6646 10.034 47.2868 10.1074 46.8643 10.1074C46.4382 10.1074 46.0568 10.034 45.7202 9.88721C45.3872 9.73682 45.1043 9.52913 44.8716 9.26416C44.6388 8.99561 44.4616 8.68229 44.3398 8.32422C44.2181 7.96615 44.1572 7.57764 44.1572 7.15869ZM45.4517 7.03516V7.15869C45.4517 7.42008 45.4785 7.66715 45.5322 7.8999C45.5859 8.13265 45.6701 8.33675 45.7847 8.51221C45.8993 8.68766 46.0461 8.82552 46.2251 8.92578C46.4041 9.02604 46.6172 9.07617 46.8643 9.07617C47.1042 9.07617 47.3118 9.02604 47.4873 8.92578C47.6663 8.82552 47.8132 8.68766 47.9277 8.51221C48.0423 8.33675 48.1265 8.13265 48.1802 7.8999C48.2375 7.66715 48.2661 7.42008 48.2661 7.15869V7.03516C48.2661 6.77734 48.2375 6.53385 48.1802 6.30469C48.1265 6.07194 48.0405 5.86605 47.9224 5.68701C47.8078 5.50798 47.661 5.36833 47.4819 5.26807C47.3065 5.16423 47.097 5.1123 46.8535 5.1123C46.61 5.1123 46.3988 5.16423 46.2197 5.26807C46.0443 5.36833 45.8993 5.50798 45.7847 5.68701C45.6701 5.86605 45.5859 6.07194 45.5322 6.30469C45.4785 6.53385 45.4517 6.77734 45.4517 7.03516ZM52.4292 5.4292V10H51.1348V4.18848H52.354L52.4292 5.4292ZM52.1982 6.87939L51.7793 6.87402C51.7829 6.46224 51.8402 6.08447 51.9512 5.74072C52.0658 5.39697 52.2233 5.10156 52.4238 4.85449C52.6279 4.60742 52.8714 4.41764 53.1543 4.28516C53.4372 4.14909 53.7523 4.08105 54.0996 4.08105C54.3789 4.08105 54.6313 4.12044 54.8569 4.19922C55.0861 4.27441 55.2812 4.39795 55.4424 4.56982C55.6071 4.7417 55.7324 4.96549 55.8184 5.24121C55.9043 5.51335 55.9473 5.84814 55.9473 6.24561V10H54.6475V6.24023C54.6475 5.96094 54.6063 5.74072 54.5239 5.57959C54.4451 5.41488 54.3288 5.2985 54.1748 5.23047C54.0244 5.15885 53.8364 5.12305 53.6108 5.12305C53.3888 5.12305 53.1901 5.1696 53.0146 5.2627C52.8392 5.35579 52.6906 5.48291 52.5688 5.64404C52.4507 5.80518 52.3594 5.99137 52.2949 6.20264C52.2305 6.4139 52.1982 6.63949 52.1982 6.87939ZM60.3306 10.1074C59.9009 10.1074 59.5124 10.0376 59.165 9.89795C58.8213 9.75472 58.5277 9.55599 58.2842 9.30176C58.0443 9.04753 57.8599 8.74854 57.731 8.40479C57.6021 8.06104 57.5376 7.69043 57.5376 7.29297V7.07812C57.5376 6.62337 57.6038 6.21159 57.7363 5.84277C57.8688 5.47396 58.0532 5.15885 58.2896 4.89746C58.5259 4.63249 58.8052 4.43018 59.1274 4.29053C59.4497 4.15088 59.7988 4.08105 60.1748 4.08105C60.5902 4.08105 60.9536 4.15088 61.2651 4.29053C61.5767 4.43018 61.8345 4.62712 62.0386 4.88135C62.2463 5.132 62.4002 5.43099 62.5005 5.77832C62.6043 6.12565 62.6562 6.50879 62.6562 6.92773V7.48096H58.166V6.55176H61.3779V6.44971C61.3708 6.21696 61.3242 5.99854 61.2383 5.79443C61.1559 5.59033 61.0288 5.42562 60.8569 5.30029C60.6851 5.17497 60.4559 5.1123 60.1694 5.1123C59.9546 5.1123 59.763 5.15885 59.5947 5.25195C59.43 5.34147 59.2922 5.47217 59.1812 5.64404C59.0701 5.81592 58.9842 6.0236 58.9233 6.26709C58.866 6.507 58.8374 6.77734 58.8374 7.07812V7.29297C58.8374 7.5472 58.8714 7.78353 58.9395 8.00195C59.0111 8.2168 59.1149 8.40479 59.251 8.56592C59.387 8.72705 59.5518 8.85417 59.7451 8.94727C59.9385 9.03678 60.1587 9.08154 60.4058 9.08154C60.7173 9.08154 60.9948 9.01888 61.2383 8.89355C61.4818 8.76823 61.693 8.59098 61.8721 8.36182L62.5542 9.02246C62.4289 9.20508 62.266 9.38053 62.0654 9.54883C61.8649 9.71354 61.6196 9.84782 61.3296 9.95166C61.0431 10.0555 60.7101 10.1074 60.3306 10.1074Z" fill="#2E7D32"/>
<circle cx="73.5" cy="6.5" r="6.5" fill="#2E7D32"/>
</svg>
