<svg width="18" height="18" viewBox="0 0 18 18" fill="none" xmlns="http://www.w3.org/2000/svg">
<path d="M6.75494 14.5045C7.0148 15.02 7.7508 15.02 8.01066 14.5045L8.92183 12.697C9.16341 12.2177 9.51148 11.8002 9.93941 11.4763L11.6343 10.1935C12.006 9.9121 12.006 9.35351 11.6343 9.07216L9.93941 7.78933C9.51148 7.46544 9.16341 7.04788 8.92183 6.56864L8.01066 4.76113C7.7508 4.24563 7.0148 4.24563 6.75494 4.76113L5.84377 6.56864C5.60219 7.04788 5.25412 7.46544 4.8262 7.78933L3.13131 9.07216C2.75961 9.35351 2.75961 9.9121 3.13131 10.1935L4.8262 11.4763C5.25412 11.8002 5.60219 12.2177 5.84377 12.697L6.75494 14.5045ZM13.3028 6.06298C13.4986 6.45934 14.0639 6.45934 14.2596 6.06298C14.4395 5.69912 14.6999 5.38105 15.0213 5.133L15.1069 5.06687C15.4322 4.81573 15.4322 4.32489 15.1069 4.07375L15.0213 4.00761C14.6999 3.75956 14.4395 3.4415 14.2596 3.07763C14.0639 2.68128 13.4986 2.68128 13.3028 3.07763C13.123 3.4415 12.8625 3.75956 12.5413 4.00761L12.4556 4.07375C12.1303 4.32489 12.1303 4.81573 12.4556 5.06687L12.5413 5.133C12.8625 5.38105 13.123 5.69912 13.3028 6.06298Z" stroke="#002109" stroke-width="1.3125" stroke-linejoin="round"/>
</svg>
