<svg width="107" height="95" viewBox="0 0 107 95" fill="none" xmlns="http://www.w3.org/2000/svg">
<path d="M10.1107 89.145C8.77926 89.145 7.54766 88.912 6.41593 88.446C5.30084 87.98 4.31889 87.3309 3.47009 86.4988C2.62129 85.6666 1.96389 84.7013 1.49788 83.6029C1.03187 82.4878 0.798871 81.2895 0.798871 80.008C0.798871 78.7098 1.03187 77.5115 1.49788 76.413C1.96389 75.3146 2.61297 74.3576 3.44513 73.5421C4.27729 72.7099 5.25091 72.0692 6.366 71.6198C7.49773 71.1538 8.72933 70.9208 10.0608 70.9208C11.3756 70.9208 12.5905 71.1538 13.7056 71.6198C14.8374 72.0692 15.8193 72.7099 16.6515 73.5421C17.5003 74.3576 18.1577 75.3229 18.6237 76.438C19.0897 77.5364 19.3227 78.7348 19.3227 80.0329C19.3227 81.3144 19.0897 82.5127 18.6237 83.6278C18.1577 84.7263 17.5086 85.6916 16.6764 86.5237C15.8443 87.3393 14.8623 87.98 13.7306 88.446C12.6155 88.912 11.4089 89.145 10.1107 89.145ZM10.0608 85.5751C11.1093 85.5751 12.0247 85.3421 12.8069 84.8761C13.6058 84.4101 14.2216 83.761 14.6543 82.9288C15.087 82.08 15.3034 81.1064 15.3034 80.008C15.3034 79.1758 15.1785 78.4269 14.9289 77.7611C14.6792 77.0788 14.3214 76.4963 13.8554 76.0136C13.3894 75.5143 12.8319 75.1398 12.1828 74.8902C11.5503 74.6239 10.843 74.4908 10.0608 74.4908C9.01226 74.4908 8.08857 74.7238 7.28969 75.1898C6.50747 75.6391 5.89999 76.2799 5.46727 77.112C5.03455 77.9276 4.81819 78.8929 4.81819 80.008C4.81819 80.8401 4.94301 81.5974 5.19266 82.2797C5.44231 82.9621 5.79181 83.5529 6.24118 84.0522C6.70718 84.5349 7.26473 84.9094 7.91381 85.1756C8.56289 85.4419 9.27855 85.5751 10.0608 85.5751ZM28.4514 89.0951C27.6359 89.0951 26.8869 88.937 26.2046 88.6208C25.5222 88.3046 24.9646 87.8718 24.5319 87.3226C24.0992 86.7567 23.8496 86.116 23.783 85.4003V80.2826C23.8496 79.5669 24.0992 78.9178 24.5319 78.3353C24.9646 77.7528 25.5222 77.2951 26.2046 76.9623C26.8869 76.6294 27.6359 76.463 28.4514 76.463C29.5998 76.463 30.615 76.7376 31.4971 77.2868C32.3958 77.836 33.0948 78.585 33.5941 79.5336C34.11 80.4823 34.368 81.5641 34.368 82.779C34.368 83.994 34.11 85.0758 33.5941 86.0244C33.0948 86.9731 32.3958 87.722 31.4971 88.2713C30.615 88.8205 29.5998 89.0951 28.4514 89.0951ZM27.7524 85.65C28.3016 85.65 28.7759 85.5252 29.1754 85.2755C29.5914 85.0259 29.916 84.6847 30.149 84.252C30.382 83.8192 30.4985 83.3283 30.4985 82.779C30.4985 82.2132 30.382 81.7139 30.149 81.2812C29.916 80.8484 29.5914 80.5156 29.1754 80.2826C28.7759 80.0329 28.3099 79.9081 27.7773 79.9081C27.2448 79.9081 26.7704 80.0329 26.3543 80.2826C25.9549 80.5156 25.6387 80.8484 25.4057 81.2812C25.1727 81.7139 25.0562 82.2132 25.0562 82.779C25.0562 83.3283 25.1644 83.8192 25.3807 84.252C25.6137 84.6847 25.9383 85.0259 26.3543 85.2755C26.7704 85.5252 27.2364 85.65 27.7524 85.65ZM21.4613 93.9632V76.7126H25.2809V79.8332L24.6567 82.779L25.2309 85.7249V93.9632H21.4613ZM37.7872 88.8455V71.6947H41.6068V88.8455H37.7872ZM35.0411 79.958V76.7126H44.3529V79.958H35.0411ZM46.0359 88.8455V76.7126H49.8555V88.8455H46.0359ZM47.9582 75.04C47.359 75.04 46.8597 74.8403 46.4603 74.4408C46.0775 74.0247 45.8861 73.5254 45.8861 72.9429C45.8861 72.3438 46.0775 71.8445 46.4603 71.4451C46.8597 71.0456 47.359 70.8459 47.9582 70.8459C48.5573 70.8459 49.0483 71.0456 49.4311 71.4451C49.8139 71.8445 50.0053 72.3438 50.0053 72.9429C50.0053 73.5254 49.8139 74.0247 49.4311 74.4408C49.0483 74.8403 48.5573 75.04 47.9582 75.04ZM52.8948 88.8455V71.2204H56.8142V88.8455H52.8948ZM55.8905 81.9302V78.56H64.7031V81.9302H55.8905ZM55.8905 74.5906V71.2204H65.1025V74.5906H55.8905ZM67.2705 88.8455V76.7126H71.0901V88.8455H67.2705ZM69.1928 75.04C68.5936 75.04 68.0944 74.8403 67.6949 74.4408C67.3121 74.0247 67.1207 73.5254 67.1207 72.9429C67.1207 72.3438 67.3121 71.8445 67.6949 71.4451C68.0944 71.0456 68.5936 70.8459 69.1928 70.8459C69.792 70.8459 70.2829 71.0456 70.6657 71.4451C71.0485 71.8445 71.2399 72.3438 71.2399 72.9429C71.2399 73.5254 71.0485 74.0247 70.6657 74.4408C70.2829 74.8403 69.792 75.04 69.1928 75.04ZM79.7714 89.1201C78.4566 89.1201 77.2833 88.8538 76.2514 88.3212C75.2361 87.772 74.4373 87.0147 73.8548 86.0494C73.2723 85.0841 72.981 83.994 72.981 82.779C72.981 81.5641 73.2639 80.4823 73.8298 79.5336C74.4123 78.5683 75.1945 77.8111 76.1765 77.2618C77.1584 76.7126 78.2652 76.438 79.4968 76.438C80.6951 76.438 81.7519 76.696 82.6673 77.2119C83.5827 77.7278 84.2983 78.4435 84.8143 79.3589C85.3469 80.2742 85.6131 81.3228 85.6131 82.5044C85.6131 82.7208 85.5965 82.9538 85.5632 83.2034C85.5466 83.4364 85.505 83.7111 85.4384 84.0273L74.9782 84.0522V81.4309L83.8157 81.406L82.168 82.5044C82.1514 81.8054 82.0432 81.2312 81.8435 80.7819C81.6438 80.3159 81.3442 79.9663 80.9447 79.7333C80.562 79.4837 80.0876 79.3589 79.5218 79.3589C78.9226 79.3589 78.3983 79.5003 77.949 79.7833C77.5163 80.0496 77.1751 80.4324 76.9254 80.9316C76.6924 81.4309 76.5759 82.0384 76.5759 82.7541C76.5759 83.4697 76.7007 84.0855 76.9504 84.6015C77.2167 85.1008 77.5828 85.4919 78.0488 85.7748C78.5315 86.0411 79.0974 86.1742 79.7464 86.1742C80.3456 86.1742 80.8865 86.0744 81.3691 85.8747C81.8518 85.6583 82.2762 85.3421 82.6423 84.926L84.7394 87.023C84.1402 87.722 83.4162 88.2463 82.5674 88.5958C81.7186 88.9453 80.7866 89.1201 79.7714 89.1201ZM87.4568 88.8455V70.7211H91.2764V88.8455H87.4568ZM99.1339 89.0951C97.9855 89.0951 96.9619 88.8205 96.0632 88.2713C95.1811 87.722 94.4821 86.9731 93.9662 86.0244C93.4669 85.0758 93.2172 83.994 93.2172 82.779C93.2172 81.5641 93.4669 80.4823 93.9662 79.5336C94.4821 78.585 95.1811 77.836 96.0632 77.2868C96.9619 76.7376 97.9855 76.463 99.1339 76.463C99.966 76.463 100.715 76.6211 101.381 76.9373C102.063 77.2535 102.621 77.6946 103.053 78.2604C103.503 78.8096 103.752 79.4421 103.802 80.1577V85.2755C103.752 85.9912 103.511 86.6402 103.078 87.2228C102.646 87.7886 102.088 88.2463 101.406 88.5958C100.723 88.9287 99.966 89.0951 99.1339 89.0951ZM99.8079 85.65C100.357 85.65 100.831 85.5335 101.231 85.3005C101.63 85.0508 101.947 84.7096 102.18 84.2769C102.413 83.8442 102.529 83.3449 102.529 82.779C102.529 82.2132 102.413 81.7222 102.18 81.3061C101.963 80.8734 101.647 80.5322 101.231 80.2826C100.831 80.0329 100.365 79.9081 99.8329 79.9081C99.3003 79.9081 98.826 80.0329 98.4099 80.2826C98.0105 80.5322 97.6859 80.8734 97.4363 81.3061C97.2033 81.7388 97.0868 82.2298 97.0868 82.779C97.0868 83.3283 97.2033 83.8192 97.4363 84.252C97.6693 84.6847 97.9938 85.0259 98.4099 85.2755C98.826 85.5252 99.292 85.65 99.8079 85.65ZM106.124 88.8455H102.379V85.5751L102.953 82.6292L102.304 79.6834V70.7211H106.124V88.8455Z" fill="black"/>
<path d="M53.02 0C49.6044 0.00120824 46.261 0.983344 43.3874 2.82961C40.5138 4.67588 38.2309 7.30861 36.8102 10.4147C35.3894 13.5208 34.8907 16.9696 35.3732 20.3509C35.8557 23.7323 37.2991 26.9039 39.5319 29.4887L53.02 44.5798L66.5134 29.4887C68.7465 26.9036 70.19 23.7314 70.6723 20.3496C71.1546 16.9678 70.6554 13.5186 69.234 10.4123C67.8126 7.30597 65.5289 4.67332 62.6545 2.82745C59.7801 0.981578 56.436 0.000183771 53.02 0ZM53.02 35.4552C52.7305 30.8761 50.7808 26.5598 47.5364 23.3155C44.2921 20.0711 39.9758 18.1214 35.3967 17.8319C39.9758 17.5425 44.2921 15.5928 47.5364 12.3484C50.7808 9.10404 52.7305 4.78773 53.02 0.208634C53.3087 4.7877 55.2578 9.1042 58.502 12.3487C61.7461 15.5932 66.0624 17.5428 70.6415 17.8319C66.0624 18.1211 61.7461 20.0707 58.502 23.3152C55.2578 26.5597 53.3087 30.8762 53.02 35.4552Z" fill="#020202"/>
</svg>
