<svg width="22" height="18" viewBox="0 0 22 18" fill="none" xmlns="http://www.w3.org/2000/svg">
<g id="Leading Icon">
<path id="Line 2 (Stroke)" d="M14.6044 5.60817C15.2165 4.86015 15.1062 3.75761 14.3582 3.14558C13.6101 2.53356 12.5076 2.64381 11.8956 3.39184L6.20791 10.3434L4.55001 9.10001C3.77681 8.52011 2.67991 8.67681 2.10001 9.45001C1.52011 10.2232 1.67681 11.3201 2.45001 11.9L4.87483 13.7186C5.94655 14.5224 7.46139 14.3386 8.30972 13.3017L14.6044 5.60817Z" stroke="#222222" stroke-width="2" stroke-linecap="round"/>
<g id="Subtract">
<mask id="path-2-outside-1_20_1054" maskUnits="userSpaceOnUse" x="6.70435" y="1.49997" width="15" height="14" fill="black">
<rect fill="white" x="6.70435" y="1.49997" width="15" height="14"/>
<path fill-rule="evenodd" clip-rule="evenodd" d="M10.7043 13.1388C11.5236 13.5513 12.5464 13.3558 13.1503 12.6177L19.274 5.13324C19.6237 4.70579 19.5607 4.07577 19.1332 3.72604C18.7058 3.37631 18.0758 3.43932 17.726 3.86676L16.6941 5.12807C16.5916 5.69296 16.3484 6.24049 15.9591 6.71631L10.7043 13.1388Z"/>
</mask>
<path d="M13.1503 12.6177L14.6982 13.8842L14.6982 13.8842L13.1503 12.6177ZM10.7043 13.1388L9.15643 11.8723L7.57674 13.803L9.80479 14.925L10.7043 13.1388ZM19.274 5.13324L17.726 3.86676L17.726 3.86676L19.274 5.13324ZM19.1332 3.72604L20.3997 2.17813L20.3997 2.17813L19.1332 3.72604ZM17.726 3.86676L16.1781 2.60029L16.1781 2.60029L17.726 3.86676ZM16.6941 5.12807L15.1461 3.8616L14.8186 4.26199L14.7262 4.77101L16.6941 5.12807ZM15.9591 6.71631L17.507 7.98278L15.9591 6.71631ZM11.6024 11.3513C11.6009 11.353 11.6004 11.3534 11.6009 11.353C11.6013 11.3526 11.602 11.3521 11.6028 11.3516C11.6043 11.3507 11.6047 11.3508 11.6035 11.3511C11.6021 11.3514 11.6008 11.3513 11.6005 11.3513C11.6005 11.3513 11.6009 11.3513 11.6016 11.3516C11.6024 11.3518 11.6032 11.3521 11.6039 11.3525L9.80479 14.925C11.4439 15.7505 13.489 15.3621 14.6982 13.8842L11.6024 11.3513ZM17.726 3.86676L11.6024 11.3513L14.6982 13.8842L20.8219 6.39971L17.726 3.86676ZM17.8668 5.27396C17.4393 4.92423 17.3763 4.29421 17.726 3.86676L20.8219 6.39971C21.8711 5.11738 21.682 3.22731 20.3997 2.17813L17.8668 5.27396ZM19.274 5.13324C18.9242 5.56068 18.2942 5.62368 17.8668 5.27396L20.3997 2.17813C19.1174 1.12894 17.2273 1.31795 16.1781 2.60029L19.274 5.13324ZM18.242 6.39455L19.274 5.13324L16.1781 2.60029L15.1461 3.8616L18.242 6.39455ZM14.7262 4.77101C14.6827 5.01058 14.5802 5.24326 14.4112 5.44983L17.507 7.98278C18.1166 7.23773 18.5004 6.37533 18.6619 5.48514L14.7262 4.77101ZM14.4112 5.44983L9.15643 11.8723L12.2523 14.4052L17.507 7.98278L14.4112 5.44983Z" fill="#222222" mask="url(#path-2-outside-1_20_1054)"/>
</g>
</g>
</svg>
