<svg width="24" height="24" viewBox="0 0 24 24" fill="none" xmlns="http://www.w3.org/2000/svg">
<g id="Status">
<path id="Subtract" fill-rule="evenodd" clip-rule="evenodd" d="M14.5868 6.58474C14.9487 6.22343 15.4482 6 16 6C17.1046 6 18 6.89543 18 8C18 8.55175 17.7766 9.05132 17.4153 9.41317C16.824 8.17765 15.8223 7.17601 14.5868 6.58474ZM10.2571 6.25707C10.5118 5.41668 10.9459 4.65429 11.5149 4.01447C7.32249 4.26523 4 7.74461 4 12C4 16.4183 7.58172 20 12 20C16.2554 20 19.7348 16.6775 19.9855 12.4851C19.3457 13.0541 18.5833 13.4882 17.7429 13.7429C16.9962 16.2066 14.7075 18 12 18C8.68629 18 6 15.3137 6 12C6 9.29246 7.79338 7.00379 10.2571 6.25707Z" fill="#33363F"/>
<circle id="Ellipse 103" cx="16" cy="8" r="4" fill="#33363F"/>
</g>
</svg>
