<svg width="72" height="17" viewBox="0 0 72 17" fill="none" xmlns="http://www.w3.org/2000/svg">
<rect width="72" height="17" rx="8.5" fill="white"/>
<path d="M13.4282 9.0835H11.3926V8.01465H13.4282C13.7827 8.01465 14.0692 7.95736 14.2876 7.84277C14.506 7.72819 14.6654 7.57064 14.7656 7.37012C14.8695 7.16602 14.9214 6.93327 14.9214 6.67188C14.9214 6.4248 14.8695 6.19385 14.7656 5.979C14.6654 5.76058 14.506 5.58512 14.2876 5.45264C14.0692 5.32015 13.7827 5.25391 13.4282 5.25391H11.8062V12H10.458V4.17969H13.4282C14.0334 4.17969 14.5472 4.28711 14.9697 4.50195C15.3958 4.71322 15.7199 5.00684 15.9419 5.38281C16.1639 5.75521 16.2749 6.18132 16.2749 6.66113C16.2749 7.16602 16.1639 7.59928 15.9419 7.96094C15.7199 8.32259 15.3958 8.6001 14.9697 8.79346C14.5472 8.98682 14.0334 9.0835 13.4282 9.0835ZM20.3413 12.1074C19.9116 12.1074 19.5231 12.0376 19.1758 11.8979C18.832 11.7547 18.5384 11.556 18.2949 11.3018C18.055 11.0475 17.8706 10.7485 17.7417 10.4048C17.6128 10.061 17.5483 9.69043 17.5483 9.29297V9.07812C17.5483 8.62337 17.6146 8.21159 17.7471 7.84277C17.8796 7.47396 18.064 7.15885 18.3003 6.89746C18.5366 6.63249 18.8159 6.43018 19.1382 6.29053C19.4604 6.15088 19.8096 6.08105 20.1855 6.08105C20.6009 6.08105 20.9644 6.15088 21.2759 6.29053C21.5874 6.43018 21.8452 6.62712 22.0493 6.88135C22.257 7.132 22.411 7.43099 22.5112 7.77832C22.6151 8.12565 22.667 8.50879 22.667 8.92773V9.48096H18.1768V8.55176H21.3887V8.44971C21.3815 8.21696 21.335 7.99854 21.249 7.79443C21.1667 7.59033 21.0396 7.42562 20.8677 7.30029C20.6958 7.17497 20.4666 7.1123 20.1802 7.1123C19.9653 7.1123 19.7738 7.15885 19.6055 7.25195C19.4408 7.34147 19.3029 7.47217 19.1919 7.64404C19.0809 7.81592 18.995 8.0236 18.9341 8.26709C18.8768 8.507 18.8481 8.77734 18.8481 9.07812V9.29297C18.8481 9.5472 18.8822 9.78353 18.9502 10.002C19.0218 10.2168 19.1257 10.4048 19.2617 10.5659C19.3978 10.7271 19.5625 10.8542 19.7559 10.9473C19.9492 11.0368 20.1694 11.0815 20.4165 11.0815C20.728 11.0815 21.0055 11.0189 21.249 10.8936C21.4925 10.7682 21.7038 10.591 21.8828 10.3618L22.5649 11.0225C22.4396 11.2051 22.2767 11.3805 22.0762 11.5488C21.8757 11.7135 21.6304 11.8478 21.3403 11.9517C21.0539 12.0555 20.7209 12.1074 20.3413 12.1074ZM25.4604 7.4292V12H24.166V6.18848H25.3853L25.4604 7.4292ZM25.2295 8.87939L24.8105 8.87402C24.8141 8.46224 24.8714 8.08447 24.9824 7.74072C25.097 7.39697 25.2546 7.10156 25.4551 6.85449C25.6592 6.60742 25.9027 6.41764 26.1855 6.28516C26.4684 6.14909 26.7835 6.08105 27.1309 6.08105C27.4102 6.08105 27.6626 6.12044 27.8882 6.19922C28.1174 6.27441 28.3125 6.39795 28.4736 6.56982C28.6383 6.7417 28.7637 6.96549 28.8496 7.24121C28.9355 7.51335 28.9785 7.84814 28.9785 8.24561V12H27.6787V8.24023C27.6787 7.96094 27.6375 7.74072 27.5552 7.57959C27.4764 7.41488 27.36 7.2985 27.2061 7.23047C27.0557 7.15885 26.8677 7.12305 26.6421 7.12305C26.4201 7.12305 26.2214 7.1696 26.0459 7.2627C25.8704 7.35579 25.7218 7.48291 25.6001 7.64404C25.4819 7.80518 25.3906 7.99137 25.3262 8.20264C25.2617 8.4139 25.2295 8.63949 25.2295 8.87939ZM34.3447 10.7969V3.75H35.6445V12H34.4683L34.3447 10.7969ZM30.5635 9.15869V9.0459C30.5635 8.60547 30.6154 8.20443 30.7192 7.84277C30.8231 7.47754 30.9735 7.16423 31.1704 6.90283C31.3674 6.63786 31.6073 6.43555 31.8901 6.2959C32.173 6.15267 32.4917 6.08105 32.8462 6.08105C33.1971 6.08105 33.505 6.14909 33.77 6.28516C34.035 6.42122 34.2606 6.61637 34.4468 6.87061C34.633 7.12126 34.7816 7.42204 34.8926 7.77295C35.0036 8.12028 35.0824 8.507 35.1289 8.93311V9.29297C35.0824 9.70833 35.0036 10.0879 34.8926 10.4316C34.7816 10.7754 34.633 11.0726 34.4468 11.3232C34.2606 11.5739 34.0332 11.7673 33.7646 11.9033C33.4997 12.0394 33.1899 12.1074 32.8354 12.1074C32.4845 12.1074 32.1676 12.034 31.8848 11.8872C31.6055 11.7404 31.3674 11.5345 31.1704 11.2695C30.9735 11.0046 30.8231 10.693 30.7192 10.335C30.6154 9.97331 30.5635 9.58122 30.5635 9.15869ZM31.8579 9.0459V9.15869C31.8579 9.42367 31.8812 9.67074 31.9277 9.8999C31.9779 10.1291 32.0549 10.3314 32.1587 10.5068C32.2625 10.6787 32.3968 10.8148 32.5615 10.915C32.7298 11.0117 32.9303 11.0601 33.1631 11.0601C33.4567 11.0601 33.6984 10.9956 33.8882 10.8667C34.078 10.7378 34.2266 10.5641 34.334 10.3457C34.445 10.1237 34.5202 9.87663 34.5596 9.60449V8.63232C34.5381 8.42106 34.4933 8.22412 34.4253 8.0415C34.3608 7.85889 34.2731 7.69954 34.1621 7.56348C34.0511 7.42383 33.9132 7.31641 33.7485 7.24121C33.5874 7.16243 33.3958 7.12305 33.1738 7.12305C32.9375 7.12305 32.737 7.17318 32.5723 7.27344C32.4076 7.3737 32.2715 7.51156 32.1641 7.68701C32.0602 7.86247 31.9832 8.06657 31.9331 8.29932C31.883 8.53206 31.8579 8.78092 31.8579 9.0459ZM38.8838 6.18848V12H37.584V6.18848H38.8838ZM37.498 4.66309C37.498 4.46615 37.5625 4.30322 37.6914 4.17432C37.8239 4.04183 38.0065 3.97559 38.2393 3.97559C38.4684 3.97559 38.6493 4.04183 38.7817 4.17432C38.9142 4.30322 38.9805 4.46615 38.9805 4.66309C38.9805 4.85645 38.9142 5.01758 38.7817 5.14648C38.6493 5.27539 38.4684 5.33984 38.2393 5.33984C38.0065 5.33984 37.8239 5.27539 37.6914 5.14648C37.5625 5.01758 37.498 4.85645 37.498 4.66309ZM42.0854 7.4292V12H40.791V6.18848H42.0103L42.0854 7.4292ZM41.8545 8.87939L41.4355 8.87402C41.4391 8.46224 41.4964 8.08447 41.6074 7.74072C41.722 7.39697 41.8796 7.10156 42.0801 6.85449C42.2842 6.60742 42.5277 6.41764 42.8105 6.28516C43.0934 6.14909 43.4085 6.08105 43.7559 6.08105C44.0352 6.08105 44.2876 6.12044 44.5132 6.19922C44.7424 6.27441 44.9375 6.39795 45.0986 6.56982C45.2633 6.7417 45.3887 6.96549 45.4746 7.24121C45.5605 7.51335 45.6035 7.84814 45.6035 8.24561V12H44.3037V8.24023C44.3037 7.96094 44.2625 7.74072 44.1802 7.57959C44.1014 7.41488 43.985 7.2985 43.8311 7.23047C43.6807 7.15885 43.4927 7.12305 43.2671 7.12305C43.0451 7.12305 42.8464 7.1696 42.6709 7.2627C42.4954 7.35579 42.3468 7.48291 42.2251 7.64404C42.1069 7.80518 42.0156 7.99137 41.9512 8.20264C41.8867 8.4139 41.8545 8.63949 41.8545 8.87939ZM51.147 6.18848H52.3232V11.8389C52.3232 12.3617 52.2122 12.8057 51.9902 13.1709C51.7682 13.5361 51.4585 13.8136 51.061 14.0034C50.6636 14.1968 50.2035 14.2935 49.6807 14.2935C49.4587 14.2935 49.2116 14.2612 48.9395 14.1968C48.6709 14.1323 48.4095 14.0285 48.1553 13.8853C47.9046 13.7456 47.6951 13.5612 47.5269 13.332L48.1338 12.5693C48.3415 12.8164 48.5706 12.9972 48.8213 13.1118C49.0719 13.2264 49.3351 13.2837 49.6108 13.2837C49.908 13.2837 50.1605 13.2282 50.3682 13.1172C50.5794 13.0098 50.7424 12.8504 50.8569 12.6392C50.9715 12.4279 51.0288 12.1701 51.0288 11.8657V7.50439L51.147 6.18848ZM47.1992 9.15869V9.0459C47.1992 8.60547 47.2529 8.20443 47.3604 7.84277C47.4678 7.47754 47.6217 7.16423 47.8223 6.90283C48.0228 6.63786 48.2663 6.43555 48.5527 6.2959C48.8392 6.15267 49.1632 6.08105 49.5249 6.08105C49.9009 6.08105 50.2214 6.14909 50.4863 6.28516C50.7549 6.42122 50.9787 6.61637 51.1577 6.87061C51.3368 7.12126 51.4764 7.42204 51.5767 7.77295C51.6805 8.12028 51.7575 8.507 51.8076 8.93311V9.29297C51.7611 9.70833 51.6823 10.0879 51.5713 10.4316C51.4603 10.7754 51.3135 11.0726 51.1309 11.3232C50.9482 11.5739 50.7227 11.7673 50.4541 11.9033C50.1891 12.0394 49.8758 12.1074 49.5142 12.1074C49.1597 12.1074 48.8392 12.034 48.5527 11.8872C48.2699 11.7404 48.0264 11.5345 47.8223 11.2695C47.6217 11.0046 47.4678 10.693 47.3604 10.335C47.2529 9.97331 47.1992 9.58122 47.1992 9.15869ZM48.4937 9.0459V9.15869C48.4937 9.42367 48.5187 9.67074 48.5688 9.8999C48.6226 10.1291 48.7031 10.3314 48.8105 10.5068C48.9215 10.6787 49.0612 10.8148 49.2295 10.915C49.4014 11.0117 49.6037 11.0601 49.8364 11.0601C50.1408 11.0601 50.3896 10.9956 50.583 10.8667C50.7799 10.7378 50.9303 10.5641 51.0342 10.3457C51.1416 10.1237 51.2168 9.87663 51.2598 9.60449V8.63232C51.2383 8.42106 51.1935 8.22412 51.1255 8.0415C51.061 7.85889 50.9733 7.69954 50.8623 7.56348C50.7513 7.42383 50.6117 7.31641 50.4434 7.24121C50.2751 7.16243 50.0763 7.12305 49.8472 7.12305C49.6144 7.12305 49.4121 7.17318 49.2402 7.27344C49.0684 7.3737 48.9269 7.51156 48.8159 7.68701C48.7085 7.86247 48.6279 8.06657 48.5742 8.29932C48.5205 8.53206 48.4937 8.78092 48.4937 9.0459Z" fill="#797488"/>
<circle cx="63.5" cy="8.5" r="6.5" fill="#797488"/>
</svg>
