<svg width="118" height="32" viewBox="0 0 118 32" fill="none" xmlns="http://www.w3.org/2000/svg">
<g clip-path="url(#clip0_131_4419)">
<path d="M11.3355 1.52588e-05C9.16434 0.00100032 7.03916 0.625485 5.21263 1.79921C3.3861 2.97294 1.93507 4.64653 1.03207 6.62098C0.129082 8.59543 -0.18788 10.7877 0.118875 12.937C0.42563 15.0864 1.3432 17.1024 2.76247 18.7455L11.3355 28.3387L19.9085 18.7455C21.3278 17.1024 22.2453 15.0864 22.5521 12.937C22.8588 10.7877 22.5419 8.59543 21.6389 6.62098C20.7359 4.64653 19.2849 2.97294 17.4583 1.79921C15.6318 0.625485 13.5066 0.00100032 11.3355 1.52588e-05ZM11.3355 22.5383C11.1515 19.6275 9.91209 16.8836 7.8497 14.8213C5.7873 12.7589 3.0435 11.5195 0.132646 11.3355C3.0435 11.1515 5.7873 9.91208 7.8497 7.84969C9.91209 5.7873 11.1515 3.04349 11.3355 0.13264C11.5195 3.04349 12.7589 5.7873 14.8213 7.84969C16.8837 9.91208 19.6275 11.1515 22.5383 11.3355C19.6275 11.5195 16.8837 12.7589 14.8213 14.8213C12.7589 16.8836 11.5195 19.6275 11.3355 22.5383Z" fill="#16DB65"/>
<path d="M33.4306 23.4257C32.4746 23.4257 31.6229 23.2259 30.8755 22.8261C30.1282 22.4089 29.5372 21.8441 29.1027 21.1314C28.6855 20.4188 28.477 19.6106 28.477 18.7068V15.1089C28.477 14.2051 28.6942 13.3969 29.1287 12.6843C29.5633 11.9716 30.1542 11.4154 30.9016 11.0157C31.649 10.5985 32.492 10.39 33.4306 10.39C34.5603 10.39 35.5771 10.6854 36.4809 11.2764C37.4021 11.85 38.1234 12.6321 38.6449 13.6228C39.1837 14.5962 39.4531 15.6999 39.4531 16.9339C39.4531 18.1506 39.1837 19.2543 38.6449 20.245C38.1234 21.2183 37.4021 21.9918 36.4809 22.5654C35.5771 23.139 34.5603 23.4257 33.4306 23.4257ZM32.9613 20.7143C33.6565 20.7143 34.2648 20.5579 34.7863 20.245C35.3251 19.9148 35.7422 19.4629 36.0377 18.8893C36.3506 18.3157 36.507 17.6552 36.507 16.9079C36.507 16.1605 36.3506 15.5 36.0377 14.9264C35.7422 14.3528 35.3251 13.9096 34.7863 13.5968C34.2648 13.2665 33.6565 13.1014 32.9613 13.1014C32.266 13.1014 31.649 13.2665 31.1102 13.5968C30.5714 13.9096 30.1542 14.3528 29.8588 14.9264C29.5633 15.5 29.4155 16.1605 29.4155 16.9079C29.4155 17.6552 29.5633 18.3157 29.8588 18.8893C30.1542 19.4629 30.5714 19.9148 31.1102 20.245C31.649 20.5579 32.266 20.7143 32.9613 20.7143ZM26.7302 28.3793V10.6507H29.598V14.0139L29.1027 17.0643L29.598 20.0886V28.3793H26.7302ZM43.4005 23.165V5.43637H46.2684V23.165H43.4005ZM40.4023 13.2578V10.6507H49.2666V13.2578H40.4023ZM51.3765 23.165V10.6507H54.2444V23.165H51.3765ZM52.8105 8.35638C52.3238 8.35638 51.9154 8.19126 51.5851 7.86102C51.2723 7.53078 51.1158 7.12233 51.1158 6.63566C51.1158 6.14899 51.2723 5.74053 51.5851 5.41029C51.9154 5.08005 52.3238 4.91493 52.8105 4.91493C53.3145 4.91493 53.723 5.08005 54.0358 5.41029C54.3487 5.74053 54.5051 6.14899 54.5051 6.63566C54.5051 7.12233 54.3487 7.53078 54.0358 7.86102C53.723 8.19126 53.3145 8.35638 52.8105 8.35638ZM57.8521 23.165V4.91493H60.8503V23.165H57.8521ZM59.9117 15.3436V12.606H69.1932V15.3436H59.9117ZM59.9117 7.65245V4.91493H69.6364V7.65245H59.9117ZM72.2542 23.165V10.6507H75.122V23.165H72.2542ZM73.6881 8.35638C73.2014 8.35638 72.793 8.19126 72.4627 7.86102C72.1499 7.53078 71.9934 7.12233 71.9934 6.63566C71.9934 6.14899 72.1499 5.74053 72.4627 5.41029C72.793 5.08005 73.2014 4.91493 73.6881 4.91493C74.1921 4.91493 74.6006 5.08005 74.9135 5.41029C75.2263 5.74053 75.3827 6.14899 75.3827 6.63566C75.3827 7.12233 75.2263 7.53078 74.9135 7.86102C74.6006 8.19126 74.1921 8.35638 73.6881 8.35638ZM84.1526 23.4257C82.9011 23.4257 81.7714 23.1476 80.7633 22.5914C79.7725 22.0179 78.9817 21.2357 78.3907 20.245C77.8172 19.2543 77.5304 18.1419 77.5304 16.9079C77.5304 15.6738 77.8172 14.5701 78.3907 13.5968C78.9643 12.606 79.7378 11.8239 80.7111 11.2503C81.7018 10.6767 82.7968 10.39 83.9961 10.39C85.1607 10.39 86.1861 10.6594 87.0726 11.1982C87.9764 11.737 88.6803 12.4757 89.1844 13.4143C89.7058 14.3528 89.9665 15.4218 89.9665 16.6211C89.9665 16.8296 89.9491 17.0469 89.9144 17.2729C89.897 17.4814 89.8622 17.7161 89.8101 17.9768H79.5379V15.6303H88.324L87.2551 16.5689C87.2203 15.8042 87.0726 15.1611 86.8119 14.6396C86.5511 14.1182 86.1775 13.7184 85.6908 13.4403C85.2215 13.1622 84.6392 13.0232 83.944 13.0232C83.214 13.0232 82.5796 13.1796 82.0408 13.4925C81.502 13.8053 81.0848 14.2486 80.7893 14.8221C80.4939 15.3783 80.3461 16.0475 80.3461 16.8296C80.3461 17.6118 80.5025 18.2983 80.8154 18.8893C81.1283 19.4802 81.5715 19.9408 82.145 20.2711C82.7186 20.5839 83.3791 20.7404 84.1265 20.7404C84.7696 20.7404 85.3605 20.6274 85.8994 20.4014C86.4555 20.1755 86.9248 19.8452 87.3072 19.4107L89.1322 21.2618C88.5239 21.9744 87.7852 22.5132 86.9161 22.8782C86.0471 23.2432 85.1259 23.4257 84.1526 23.4257ZM92.2655 23.165V4.3935H95.1334V23.165H92.2655ZM103.565 23.4257C102.436 23.4257 101.41 23.139 100.489 22.5654C99.5852 21.9918 98.8639 21.2183 98.3251 20.245C97.8037 19.2543 97.543 18.1506 97.543 16.9339C97.543 15.6999 97.8037 14.5962 98.3251 13.6228C98.8639 12.6321 99.5852 11.85 100.489 11.2764C101.41 10.6854 102.436 10.39 103.565 10.39C104.521 10.39 105.364 10.5985 106.094 11.0157C106.842 11.4154 107.433 11.9716 107.867 12.6843C108.302 13.3969 108.519 14.2051 108.519 15.1089V18.7068C108.519 19.6106 108.302 20.4188 107.867 21.1314C107.45 21.8441 106.868 22.4089 106.12 22.8261C105.373 23.2259 104.521 23.4257 103.565 23.4257ZM104.035 20.7143C104.747 20.7143 105.364 20.5579 105.886 20.245C106.425 19.9148 106.842 19.4629 107.137 18.8893C107.433 18.3157 107.581 17.6552 107.581 16.9079C107.581 16.1605 107.433 15.5 107.137 14.9264C106.842 14.3528 106.425 13.9096 105.886 13.5968C105.364 13.2665 104.747 13.1014 104.035 13.1014C103.34 13.1014 102.723 13.2665 102.184 13.5968C101.662 13.9096 101.245 14.3528 100.932 14.9264C100.637 15.5 100.489 16.1605 100.489 16.9079C100.489 17.6552 100.637 18.3157 100.932 18.8893C101.245 19.4629 101.662 19.9148 102.184 20.245C102.723 20.5579 103.34 20.7143 104.035 20.7143ZM110.266 23.165H107.398V19.8018L107.893 16.7514L107.398 13.7271V4.3935H110.266V23.165Z" fill="black"/>
</g>
<defs>
<clipPath id="clip0_131_4419">
<rect width="117.965" height="32.0023" fill="white"/>
</clipPath>
</defs>
</svg>
