<svg width="40" height="40" viewBox="0 0 40 40" fill="none" xmlns="http://www.w3.org/2000/svg">
<g id="uc">
<g id="uc_2">
<path d="M2.5 9.53448C3.52298 7.18965 7.10342 2.5 13.2413 2.5C21.0622 2.5 21.3592 8.39509 21.3592 10.4757C21.3592 15.0583 18.1391 17.2637 14.902 19.4809C11.6302 21.7218 8.3409 23.9747 8.3409 28.7059C8.3409 34.5515 13.1588 37.3586 15.5678 37.4247C3.83648 37.4247 2.6485 29.0527 2.6485 27.4179C2.6485 22.7727 4.83647 20.2726 6.81284 18.0142C8.44063 16.1542 9.92487 14.4581 9.92487 11.8628C9.92487 6.71078 3.68798 7.65201 2.5 9.53448Z" fill="white"/>
<path d="M2.5 9.53448C3.52298 7.18965 7.10342 2.5 13.2413 2.5C21.0622 2.5 21.3592 8.39509 21.3592 10.4757C21.3592 15.0583 18.1391 17.2637 14.902 19.4809C11.6302 21.7218 8.3409 23.9747 8.3409 28.7059C8.3409 34.5515 13.1588 37.3586 15.5678 37.4247C3.83648 37.4247 2.6485 29.0527 2.6485 27.4179C2.6485 22.7727 4.83647 20.2726 6.81284 18.0142C8.44063 16.1542 9.92487 14.4581 9.92487 11.8628C9.92487 6.71078 3.68798 7.65201 2.5 9.53448Z" fill="url(#paint0_linear_21_1460)"/>
<path d="M20.7157 17.4606C22.2667 16.9157 25.9032 15.38 28.0416 13.5966C27.8436 11.516 28.6356 9.48494 29.477 8.69232C30.5165 9.58401 31.061 11.2023 31.2095 12.16C33.041 12.6554 36.8128 14.7459 37.2484 19.145C37.3672 19.9376 37.2979 20.8293 37.2484 21.176C36.7204 21.4237 35.2189 21.82 33.239 21.6219C32.0049 21.4984 31.1521 20.9868 30.0672 20.336C28.9764 19.6817 27.6511 18.8866 25.4676 18.2037C23.0917 17.4606 21.1117 17.4606 20.7157 17.4606Z" fill="white"/>
<path d="M20.7157 17.4606C22.2667 16.9157 25.9032 15.38 28.0416 13.5966C27.8436 11.516 28.6356 9.48494 29.477 8.69232C30.5165 9.58401 31.061 11.2023 31.2095 12.16C33.041 12.6554 36.8128 14.7459 37.2484 19.145C37.3672 19.9376 37.2979 20.8293 37.2484 21.176C36.7204 21.4237 35.2189 21.82 33.239 21.6219C32.0049 21.4984 31.1521 20.9868 30.0672 20.336C28.9764 19.6817 27.6511 18.8866 25.4676 18.2037C23.0917 17.4606 21.1117 17.4606 20.7157 17.4606Z" fill="url(#paint1_linear_21_1460)"/>
<path d="M22.5472 19.0954C19.3792 18.5406 16.8713 19.3266 16.0133 19.789C23.0224 19.036 27.0186 24.0988 28.1406 26.7244C28.0251 27.0051 29.576 27.1207 30.269 27.1207C31.0084 27.1207 32.0999 26.6977 33.1378 26.2956C34.0455 25.9439 34.9122 25.6081 35.4664 25.585C36.4168 25.5453 37.2154 25.9317 37.4959 26.1299C37.5289 25.7501 37.3771 24.8023 36.5059 24.0493C35.9215 23.5442 35.1376 23.4956 34.1847 23.4365C33.3619 23.3855 32.4131 23.3267 31.358 22.9594C30.5308 22.6715 29.6644 22.1743 28.7066 21.6247C27.0279 20.6614 25.0685 19.537 22.5472 19.0954Z" fill="white"/>
<path d="M22.5472 19.0954C19.3792 18.5406 16.8713 19.3266 16.0133 19.789C23.0224 19.036 27.0186 24.0988 28.1406 26.7244C28.0251 27.0051 29.576 27.1207 30.269 27.1207C31.0084 27.1207 32.0999 26.6977 33.1378 26.2956C34.0455 25.9439 34.9122 25.6081 35.4664 25.585C36.4168 25.5453 37.2154 25.9317 37.4959 26.1299C37.5289 25.7501 37.3771 24.8023 36.5059 24.0493C35.9215 23.5442 35.1376 23.4956 34.1847 23.4365C33.3619 23.3855 32.4131 23.3267 31.358 22.9594C30.5308 22.6715 29.6644 22.1743 28.7066 21.6247C27.0279 20.6614 25.0685 19.537 22.5472 19.0954Z" fill="url(#paint2_linear_21_1460)"/>
<path fill-rule="evenodd" clip-rule="evenodd" d="M16.1123 35.7404C18.9827 35.7404 21.3097 33.4116 21.3097 30.5388C21.3097 27.6661 18.9827 25.3373 16.1123 25.3373C13.2418 25.3373 10.9149 27.6661 10.9149 30.5388C10.9149 33.4116 13.2418 35.7404 16.1123 35.7404ZM16.1123 32.8671C17.3971 32.8671 18.4387 31.8247 18.4387 30.5388C18.4387 29.2529 17.3971 28.2105 16.1123 28.2105C14.8274 28.2105 13.7858 29.2529 13.7858 30.5388C13.7858 31.8247 14.8274 32.8671 16.1123 32.8671Z" fill="white"/>
<path fill-rule="evenodd" clip-rule="evenodd" d="M16.1123 35.7404C18.9827 35.7404 21.3097 33.4116 21.3097 30.5388C21.3097 27.6661 18.9827 25.3373 16.1123 25.3373C13.2418 25.3373 10.9149 27.6661 10.9149 30.5388C10.9149 33.4116 13.2418 35.7404 16.1123 35.7404ZM16.1123 32.8671C17.3971 32.8671 18.4387 31.8247 18.4387 30.5388C18.4387 29.2529 17.3971 28.2105 16.1123 28.2105C14.8274 28.2105 13.7858 29.2529 13.7858 30.5388C13.7858 31.8247 14.8274 32.8671 16.1123 32.8671Z" fill="url(#paint3_linear_21_1460)"/>
<path d="M10.6179 25.9169C11.3123 24.2193 13.5252 21.2751 17.6963 21.2751C23.1907 21.2751 26.8536 26.0308 26.8536 30.9351C26.8536 32.2727 26.0616 34.4028 26.0616 34.4028C28.3386 34.4028 30.9125 35.7899 30.9125 37.0779C28.4278 37.3705 23.6892 37.567 17.9711 37.4787C21.034 36.6591 23.2897 33.8626 23.2897 30.5388C23.2897 26.5717 20.0762 23.3557 16.1123 23.3557C13.9073 23.3557 11.9345 24.3509 10.6179 25.9169Z" fill="white"/>
<path d="M10.6179 25.9169C11.3123 24.2193 13.5252 21.2751 17.6963 21.2751C23.1907 21.2751 26.8536 26.0308 26.8536 30.9351C26.8536 32.2727 26.0616 34.4028 26.0616 34.4028C28.3386 34.4028 30.9125 35.7899 30.9125 37.0779C28.4278 37.3705 23.6892 37.567 17.9711 37.4787C21.034 36.6591 23.2897 33.8626 23.2897 30.5388C23.2897 26.5717 20.0762 23.3557 16.1123 23.3557C13.9073 23.3557 11.9345 24.3509 10.6179 25.9169Z" fill="url(#paint4_linear_21_1460)"/>
</g>
</g>
<defs>
<linearGradient id="paint0_linear_21_1460" x1="33.8235" y1="3.23529" x2="3.45588" y2="37.1324" gradientUnits="userSpaceOnUse">
<stop stop-color="#FCA336"/>
<stop offset="1" stop-color="#FC7625"/>
</linearGradient>
<linearGradient id="paint1_linear_21_1460" x1="33.8235" y1="3.23529" x2="3.45588" y2="37.1324" gradientUnits="userSpaceOnUse">
<stop stop-color="#FCA336"/>
<stop offset="1" stop-color="#FC7625"/>
</linearGradient>
<linearGradient id="paint2_linear_21_1460" x1="33.8235" y1="3.23529" x2="3.45588" y2="37.1324" gradientUnits="userSpaceOnUse">
<stop stop-color="#FCA336"/>
<stop offset="1" stop-color="#FC7625"/>
</linearGradient>
<linearGradient id="paint3_linear_21_1460" x1="33.8235" y1="3.23529" x2="3.45588" y2="37.1324" gradientUnits="userSpaceOnUse">
<stop stop-color="#FCA336"/>
<stop offset="1" stop-color="#FC7625"/>
</linearGradient>
<linearGradient id="paint4_linear_21_1460" x1="33.8235" y1="3.23529" x2="3.45588" y2="37.1324" gradientUnits="userSpaceOnUse">
<stop stop-color="#FCA336"/>
<stop offset="1" stop-color="#FC7625"/>
</linearGradient>
</defs>
</svg>
