<svg width="32" height="38" viewBox="0 0 32 38" fill="none" xmlns="http://www.w3.org/2000/svg">
<path d="M15.9924 0.00720215C13.0826 0.00986393 10.2349 0.847953 7.78756 2.42185C5.34024 3.99575 3.39632 6.23926 2.18684 8.8857C0.977366 11.5321 0.553212 14.4702 0.964795 17.3507C1.37638 20.2311 2.60639 22.9329 4.50862 25.1347L16.001 37.9928L27.4916 25.1347C29.3943 22.9324 30.6244 20.2301 31.0357 17.349C31.4471 14.4679 31.0223 11.5293 29.812 8.88256C28.6017 6.23586 26.6567 3.99243 24.2084 2.41905C21.76 0.845675 18.9113 0.00854238 16.001 0.00720215H15.9924ZM15.9924 30.223C15.7477 26.3192 14.0865 22.639 11.3207 19.8731C8.55484 17.1073 4.87458 15.4461 0.970781 15.2014C4.87458 14.9568 8.55484 13.2956 11.3207 10.5297C14.0865 7.76393 15.7477 4.08367 15.9924 0.179864C16.2371 4.08367 17.8982 7.76393 20.6641 10.5297C23.4299 13.2956 27.1101 14.9568 31.014 15.2014C27.111 15.446 23.4314 17.1065 20.6657 19.8712C17.9 22.636 16.2383 26.315 15.9924 30.2178V30.223Z" fill="#181D18"/>
</svg>
